<svg xmlns="http://www.w3.org/2000/svg" width="13" height="13" viewBox="0 0 13 13"><path d="M1.95,13A1.915,1.915,0,0,1,0,11.05V3.9A1.915,1.915,0,0,1,1.95,1.95h3.9a.614.614,0,0,1,.65.65.614.614,0,0,1-.65.651H1.95a.614.614,0,0,0-.65.65v7.15a.614.614,0,0,0,.65.65H9.1a.614.614,0,0,0,.65-.65V7.15a.65.65,0,1,1,1.3,0v3.9A1.915,1.915,0,0,1,9.1,13Zm2.8-4.745a.628.628,0,0,1,0-.91L10.79,1.3H8.45A.614.614,0,0,1,7.8.65.614.614,0,0,1,8.45,0h3.9a.393.393,0,0,1,.26.065.78.78,0,0,1,.325.325A.39.39,0,0,1,13,.65v3.9a.65.65,0,1,1-1.3,0V2.21L5.655,8.255a.629.629,0,0,1-.91,0Z" fill="#707070"/></svg>