<svg xmlns="http://www.w3.org/2000/svg" width="15.045" height="15.729" viewBox="0 0 15.045 15.729"><path d="M11,11.16a4.192,4.192,0,0,1,.209,1.3v2.592a.7.7,0,0,1-1.4,0v-2.66a1.464,1.464,0,0,0-.489-1.3.534.534,0,0,1-.14-.682.776.776,0,0,1,.558-.477c2.024-.2,3.909-.887,3.909-4.092a3.132,3.132,0,0,0-.838-2.114.64.64,0,0,1-.14-.682,2.631,2.631,0,0,0,.07-1.637,5.182,5.182,0,0,0-1.815.887.537.537,0,0,1-.558.068,8.539,8.539,0,0,0-4.537,0A.692.692,0,0,1,5.2,2.294a4.678,4.678,0,0,0-1.815-.887,2.631,2.631,0,0,0,.07,1.637c.07.273.07.546-.14.682A3.132,3.132,0,0,0,2.48,5.84c0,3.205,1.885,3.887,3.909,4.092a.588.588,0,0,1,.558.477.732.732,0,0,1-.14.682,1.623,1.623,0,0,0-.489,1.228v2.66a.652.652,0,0,1-.7.682.652.652,0,0,1-.7-.682V13.819a3.507,3.507,0,0,1-3.63-1.569c-.279-.341-.489-.614-.768-.682a.646.646,0,0,1-.489-.818.664.664,0,0,1,.838-.477A3.269,3.269,0,0,1,2.41,11.432a2.121,2.121,0,0,0,2.513,1.023v-.068a3.493,3.493,0,0,1,.209-1.228C3.178,10.75,1.084,9.523,1.084,5.908A4.223,4.223,0,0,1,2.061,3.18,3.69,3.69,0,0,1,2.27.453.622.622,0,0,1,2.689.043c.279-.068,1.187-.2,3.071.955a10.5,10.5,0,0,1,4.607,0C12.183-.161,13.16-.025,13.439.043a.622.622,0,0,1,.419.409,4.366,4.366,0,0,1,.209,2.66,4.223,4.223,0,0,1,.977,2.728C15.045,9.727,12.672,10.819,11,11.16Z" transform="translate(0)" fill="#707070"/></svg>