<svg xmlns="http://www.w3.org/2000/svg" width="21.083" height="21.083" viewBox="0 0 21.083 21.083"><path d="M20,15.988l1.081-2.609L18.45,11.71a7.927,7.927,0,0,0,0-2.338L21.083,7.7,20,5.094l-3.043.682a7.957,7.957,0,0,0-1.653-1.653l.682-3.043L13.38,0,11.71,2.634a7.965,7.965,0,0,0-2.338,0L7.7,0,5.094,1.08l.682,3.044A7.9,7.9,0,0,0,4.124,5.776L1.08,5.094,0,7.7l2.634,1.67a7.927,7.927,0,0,0,0,2.338L0,13.38l1.08,2.609,3.044-.682a7.93,7.93,0,0,0,1.652,1.653L5.094,20,7.7,21.083l1.669-2.635a7.927,7.927,0,0,0,2.338,0l1.67,2.635L15.988,20l-.682-3.042a7.935,7.935,0,0,0,1.653-1.653Z" fill="#242166"/><path d="M4.5,9A4.5,4.5,0,1,1,9,4.5,4.505,4.505,0,0,1,4.5,9Z" transform="translate(6 6)" fill="#fff"/></svg>