<svg xmlns="http://www.w3.org/2000/svg" width="15" height="15" viewBox="0 0 15 15"><path d="M2.045,15A2.009,2.009,0,0,1,0,12.954V3.409A2.009,2.009,0,0,1,2.045,1.363H5.659a.644.644,0,0,1,.682.682.644.644,0,0,1-.682.682H2.045a.645.645,0,0,0-.682.682v9.545a.644.644,0,0,0,.682.682h9.546a.644.644,0,0,0,.682-.682V9.341a.682.682,0,0,1,1.364,0v3.614A2.009,2.009,0,0,1,11.591,15Zm2.728-4.09a.644.644,0,0,1-.682-.682V7.5a.621.621,0,0,1,.2-.477L11.114.2a.66.66,0,0,1,.955,0L14.8,2.932a.658.658,0,0,1,0,.954L7.977,10.7a.617.617,0,0,1-.477.2Z" fill="#707070"/></svg>