<svg xmlns="http://www.w3.org/2000/svg" width="14" height="14" viewBox="0 0 14 14"><path d="M6.746,13.936.382,10.751a.563.563,0,0,1-.255-.828.562.562,0,0,1,.828-.255l6.109,3.058,6.109-3.058c.191-.191.573-.064.763.255a.671.671,0,0,1-.254.828L7.318,13.936A.575.575,0,0,1,7,14C6.873,14,6.809,14,6.746,13.936Zm0-3.185L.382,7.565a.562.562,0,0,1-.255-.828.562.562,0,0,1,.828-.255L7.063,9.54l6.109-3.058c.191-.191.573-.064.763.255a.671.671,0,0,1-.254.828L7.318,10.751A.571.571,0,0,1,7,10.815C6.873,10.815,6.809,10.815,6.746,10.751Zm0-3.185L.382,4.38A.613.613,0,0,1,0,3.806a.669.669,0,0,1,.318-.573L6.682.047a.884.884,0,0,1,.573,0l6.364,3.185a.622.622,0,0,1,0,1.147L7.255,7.565c-.064.064-.128.064-.255.064S6.809,7.629,6.746,7.565Z" transform="translate(0 0)" fill="#707070"/></svg>