<svg xmlns="http://www.w3.org/2000/svg" width="28" height="24" viewBox="0 0 28 24"><g transform="translate(-1831 -101.126)"><g transform="translate(1831 101.126)"><rect width="28" height="24" rx="8" fill="#242166"/></g><g transform="translate(1835.883 111.284)"><path d="M2.191,4.382A2.191,2.191,0,1,1,4.383,2.191,2.192,2.192,0,0,1,2.191,4.382" transform="translate(13.147)" fill="#fff"/><path d="M2.191,4.382A2.191,2.191,0,1,1,4.383,2.191,2.192,2.192,0,0,1,2.191,4.382" transform="translate(6.574)" fill="#fff"/><path d="M2.191,4.382A2.191,2.191,0,1,1,4.383,2.191,2.192,2.192,0,0,1,2.191,4.382" fill="#fff"/></g></g></svg>