<svg xmlns="http://www.w3.org/2000/svg" xmlns:xlink="http://www.w3.org/1999/xlink" width="66.315" height="66.315" viewBox="0 0 66.315 66.315"><defs><linearGradient id="a" x1="0.067" y1="0.25" x2="0.933" y2="0.75" gradientUnits="objectBoundingBox"><stop offset="0" stop-color="#00ddf6"/><stop offset="1" stop-color="#2e3192"/></linearGradient><linearGradient id="b" x1="0.5" y1="0" x2="0.5" y2="1" xlink:href="#a"/></defs><g transform="translate(-27.207 -839.001) rotate(42)"><path d="M190.447,402.27a23.478,23.478,0,1,0,23.479,23.479A23.478,23.478,0,0,0,190.447,402.27Zm-5.472,30.921-.161.061-3.35,1.273-4.15-5.9Z" transform="translate(438 182)" fill="url(#a)"/><g transform="translate(615.314 586.196)"><g transform="translate(0 3.291)"><g transform="translate(0.001)"><path d="M224.326,424.575v12.88l-1.1.48-.056.023-.692.3-.926.4-10.361,4.524,5.874-9.8,1.764-2.941,3.235-5.394a5.413,5.413,0,0,1,1.3-.4A5.617,5.617,0,0,1,224.326,424.575Z" transform="translate(-211.193 -424.575)" fill="#8c8c8c"/></g><g transform="translate(7.669 26.932)"><path d="M249.437,541.733v10.19c-.157,0-.311-.007-.468-.016h-.009l-2.171-3.086-2.744-3.9a5.428,5.428,0,0,1,.391-3.083l1.153,3.687,2.1-.711-1.64-5.072-.009-.033Z" transform="translate(-243.972 -539.705)" fill="#8c8c8c"/></g><g transform="translate(0 21.137)"><path d="M218.851,519.5l-.161.061-3.35,1.272-4.15-5.9Z" transform="translate(-211.19 -514.93)" fill="#8c8c8c"/></g><g transform="translate(4.15 25.703)"><path d="M236.161,540.785l-2.1.711-1.153-3.687a5.427,5.427,0,0,0-.391,3.083l-2.164-3.076-.175-.25-1.252-1.782,3.35-1.273.161-.061,2.07,1.23.009.033Z" transform="translate(-228.93 -534.45)" fill="#8c8c8c"/></g><path d="M265.77,591.881v.662l-.477-.678h.009C265.459,591.874,265.613,591.881,265.77,591.881Z" transform="translate(-252.637 -552.731)" fill="#8c8c8c"/><g transform="translate(13.133 21.135)"><path d="M272.786,544.562l-2.84,4.04-2.136,3.036c-.159.012-.318.016-.477.016v-10.19l3.542-2.11a6.924,6.924,0,0,1,1.369,1.907,6.1,6.1,0,0,1,.522,1.555A5.473,5.473,0,0,1,272.786,544.562Z" transform="translate(-267.333 -533.64)" fill="#3c3c3b"/><path d="M267.333,591.881c.159,0,.318,0,.477-.016l-.477.678Z" transform="translate(-267.333 -573.867)" fill="#3c3c3b"/><path d="M292.064,514.925l-5.516,7.846-2.164,3.076a5.469,5.469,0,0,0-.021-1.745,6.1,6.1,0,0,0-.522-1.556,6.929,6.929,0,0,0-1.368-1.906l2.194-1.308Z" transform="translate(-278.931 -514.925)" fill="#3c3c3b"/></g></g><path d="M280.466,485.369l-13.133,7.8V479.635Z" transform="translate(-254.2 -463.464)" fill="#141414"/><path d="M269.611,414.306a5.422,5.422,0,0,0-1.811-.486c-.154-.014-.309-.023-.468-.023v-3.291l.547.912Z" transform="translate(-254.2 -410.505)" fill="#343434"/><path d="M280.466,443.189l-13.133-5.734v-12.88c.159,0,.313.009.468.023a5.423,5.423,0,0,1,1.811.487l3.177,5.3,2.559,4.269Z" transform="translate(-254.2 -421.284)" fill="#343434"/><path d="M224.326,479.635v13.537l-13.133-7.8,10.361-4.524,1.619-.706Z" transform="translate(-211.193 -463.464)" fill="#393939"/><g transform="translate(2.386 0)"><path d="M231.659,546.036a7.894,7.894,0,0,1-7.079-10.066c.035-.129.075-.255.119-.381l-.295.131-2.311,1.036-.7-2.147,1.764-.671,3.35-1.273.161-.061,1.485-.564.585,1.794.009.033,1.64,5.072-2.1.711-1.153-3.687a5.427,5.427,0,0,0-.391,3.083c0,.019.007.037.009.056a5.484,5.484,0,0,0,2.735,3.848Z" transform="translate(-221.39 -503.61)" fill="url(#b)"/><path d="M270.271,538.39a7.407,7.407,0,0,1-.9.1l2.136-3.037a5.5,5.5,0,0,0,2.819-5.785,6.11,6.11,0,0,0-.522-1.556,6.93,6.93,0,0,0-1.368-1.906,8.1,8.1,0,0,0-1.907-1.4c-.065-.035-.129-.068-.185-.1-.15-.835-.3-1.675-.451-2.515a9.005,9.005,0,0,1,2.971,1.221,8.719,8.719,0,0,1,1.766,1.486,8.141,8.141,0,0,1,1.881,3.439,8.058,8.058,0,0,1,.18.919A8.168,8.168,0,0,1,270.271,538.39Z" transform="translate(-258.148 -496.068)" fill="url(#b)"/><path d="M259.933,410.505V413.8a5.63,5.63,0,0,0-.964.082,5.427,5.427,0,0,0-1.3.4l1.717-2.863Z" transform="translate(-249.185 -410.505)" fill="#8c8c8c"/><path d="M236.091,422.643a5.135,5.135,0,0,0,.068.559,5.932,5.932,0,0,0,.522,1.556,7.622,7.622,0,0,0,3.455,3.406c.119.653.234,1.31.353,1.965l.1.552c-.288-.063-.571-.138-.847-.227a8.679,8.679,0,0,1-5.413-4.87,7.869,7.869,0,0,1-.533-1.97,8.163,8.163,0,0,1,6.412-9.13,7.348,7.348,0,0,1,.837-.1l-1.717,2.863A5.49,5.49,0,0,0,236.091,422.643Z" transform="translate(-230.838 -413.477)" fill="url(#b)"/><path d="M279.872,425.823l-2.732,1.039-2.379.905-1.649.627-.59-1.829-1.644-5.072,2.1-.711,1.153,3.687a5.438,5.438,0,0,0,.381-3.137,5.466,5.466,0,0,0-3.1-4.038l-1.731-2.889a7.883,7.883,0,0,1,6.889,10.438l2.611-1.167Z" transform="translate(-258.378 -413.493)" fill="url(#b)"/></g></g></g></svg>