<svg xmlns="http://www.w3.org/2000/svg" xmlns:xlink="http://www.w3.org/1999/xlink" width="55.646" height="56.811" viewBox="0 0 55.646 56.811"><defs><filter id="a" x="8.174" y="8.165" width="47.297" height="48.482" filterUnits="userSpaceOnUse"><feOffset dx="2" dy="2" input="SourceAlpha"/><feGaussianBlur stdDeviation="1" result="b"/><feFlood flood-color="#686867" flood-opacity="0.678"/><feComposite operator="in" in2="b"/><feComposite in="SourceGraphic"/></filter><linearGradient id="c" x1="0.033" y1="0.234" x2="0.971" y2="0.76" gradientUnits="objectBoundingBox"><stop offset="0.255" stop-color="#73b2e0"/><stop offset="1" stop-color="#007cc3"/></linearGradient><filter id="d" x="0" y="0" width="55.646" height="56.811" filterUnits="userSpaceOnUse"><feOffset dx="-2" dy="-2" input="SourceAlpha"/><feGaussianBlur stdDeviation="2.5" result="e"/><feFlood flood-color="#fff" flood-opacity="0.749"/><feComposite operator="in" in2="e"/><feComposite in="SourceGraphic"/></filter></defs><g transform="translate(-19.227 -180.388)"><g transform="translate(0 10.512)"><g transform="matrix(1, 0, 0, 1, 19.23, 169.88)" filter="url(#a)"><path d="M20.649,0h.9A19.748,19.748,0,0,1,41.3,19.748v2.086A20.649,20.649,0,0,1,20.649,42.482h0A20.649,20.649,0,0,1,0,21.833V20.649A20.649,20.649,0,0,1,20.649,0Z" transform="translate(9.17 9.16)" fill="#d6d6d6"/></g><g transform="matrix(1, 0, 0, 1, 19.23, 169.88)" filter="url(#d)"><path d="M20.323,0h.9A19.425,19.425,0,0,1,40.646,19.425v2.063A20.323,20.323,0,0,1,20.323,41.811h0A20.323,20.323,0,0,1,0,21.488V20.323A20.323,20.323,0,0,1,20.323,0Z" transform="translate(9.5 9.5)" fill="url(#c)"/></g><path d="M16.784,0h8.462A16.037,16.037,0,0,1,41.3,16.022v9.707A16.768,16.768,0,0,1,24.514,42.482h-7.73A16.768,16.768,0,0,1,0,25.729V16.753A16.768,16.768,0,0,1,16.784,0Z" transform="translate(28.402 179.04)" fill="#d6d6d6"/><g transform="translate(31.904 182.127)"><path d="M46.463,182.632h6.7a14.365,14.365,0,0,1,14.558,14.075v7.541a14.365,14.365,0,0,1-14.558,14.075H45.751A13.662,13.662,0,0,1,31.9,204.936v-8.229A14.365,14.365,0,0,1,46.463,182.632Z" transform="translate(-31.904 -182.632)" fill="#bcbbbb"/><path d="M52.948,182.695a16.053,16.053,0,0,1,5.039.808,14.5,14.5,0,0,1,5.157,3,13.969,13.969,0,0,1,3.636,5.439,14.6,14.6,0,0,1,.886,5.013c0,.074-.015,7.39-.042,7.454a14.3,14.3,0,0,1-14.491,13.857H45.747a14.674,14.674,0,0,1-1.591-.086,13.985,13.985,0,0,1-8.055-3.687,13.158,13.158,0,0,1-4.1-8.74c-.015-.254-.023-.537-.023-.794V196.76a14.3,14.3,0,0,1,14.34-14.03C46.372,182.708,52.881,182.695,52.948,182.695Z" transform="translate(-31.904 -182.632)" fill="#bdbcbc"/><path d="M52.729,182.759a17.34,17.34,0,0,1,5.134.774,14.312,14.312,0,0,1,5.278,2.98,13.819,13.819,0,0,1,3.615,5.573,15.73,15.73,0,0,1,.851,5.109c0,.147-.03,7.238-.084,7.367A14.247,14.247,0,0,1,53.1,218.2H45.744a15.406,15.406,0,0,1-1.584-.082,13.947,13.947,0,0,1-8.038-3.636,13.145,13.145,0,0,1-4.058-8.718c-.015-.243-.023-.544-.023-.791v-8.159A14.246,14.246,0,0,1,46.163,182.83C46.283,182.784,52.594,182.759,52.729,182.759Z" transform="translate(-31.904 -182.632)" fill="#bebdbd"/><path d="M52.511,182.822a18.742,18.742,0,0,1,5.23.742,14.153,14.153,0,0,1,5.4,2.966,13.684,13.684,0,0,1,3.595,5.706,17.009,17.009,0,0,1,.815,5.2c0,.221-.045,7.087-.127,7.279A14.19,14.19,0,0,1,53.067,218.14H45.74a15.772,15.772,0,0,1-1.578-.079,13.908,13.908,0,0,1-8.021-3.586,13.132,13.132,0,0,1-4.009-8.7c-.015-.234-.022-.551-.022-.787v-8.124c0-7.522,6.377-12.439,13.9-13.94C46.2,182.891,52.307,182.822,52.511,182.822Z" transform="translate(-31.904 -182.632)" fill="#bfbebe"/><path d="M52.292,182.886a20.313,20.313,0,0,1,5.325.709,14,14,0,0,1,5.519,2.952,13.568,13.568,0,0,1,3.574,5.838,18.431,18.431,0,0,1,.778,5.3c0,.294-.106,6.922-.168,7.192-1.615,7.148-6.632,13.2-14.288,13.2h-7.3c-.455,0-1.129-.026-1.572-.075a13.875,13.875,0,0,1-8.005-3.536,13.122,13.122,0,0,1-3.961-8.675c-.014-.223-.02-.557-.02-.782v-8.089c0-7.45,6.27-12.374,13.685-13.895C46.116,182.976,52.021,182.886,52.292,182.886Z" transform="translate(-31.904 -182.632)" fill="#c0bfbf"/><path d="M52.075,182.949a22.041,22.041,0,0,1,5.419.676,13.89,13.89,0,0,1,5.64,2.937,13.476,13.476,0,0,1,3.554,5.971,19.967,19.967,0,0,1,.742,5.392c0,.367-.131,6.768-.209,7.1-1.635,7.038-6.653,12.988-14.221,12.988H45.734c-.435,0-1.143-.024-1.565-.072a13.832,13.832,0,0,1-7.989-3.485,13.1,13.1,0,0,1-3.912-8.653c-.013-.212-.019-.563-.019-.779v-8.055c0-7.377,6.163-12.31,13.467-13.849C46.03,183.059,51.736,182.949,52.075,182.949Z" transform="translate(-31.904 -182.632)" fill="#c1c0c0"/><path d="M51.857,183.013a23.98,23.98,0,0,1,5.514.643,13.8,13.8,0,0,1,5.76,2.922,13.4,13.4,0,0,1,3.533,6.1,21.685,21.685,0,0,1,.707,5.486c0,.441-.154,6.615-.251,7.018-1.655,6.929-6.673,12.771-14.153,12.771H45.73c-.413,0-1.158-.023-1.559-.068a13.794,13.794,0,0,1-7.971-3.434,13.089,13.089,0,0,1-3.865-8.631c-.013-.2-.019-.57-.019-.775v-8.019c0-7.3,6.056-12.246,13.251-13.8C45.943,183.143,51.451,183.013,51.857,183.013Z" transform="translate(-31.904 -182.632)" fill="#c2c1c1"/><path d="M51.639,183.076a26.123,26.123,0,0,1,5.608.611,13.7,13.7,0,0,1,5.88,2.907,13.333,13.333,0,0,1,3.513,6.236,23.627,23.627,0,0,1,.671,5.579c0,.513-.178,6.462-.293,6.932-1.674,6.821-6.693,12.555-14.086,12.555H45.727c-.392,0-1.171-.022-1.552-.064a13.758,13.758,0,0,1-7.955-3.385,13.082,13.082,0,0,1-3.817-8.609c-.012-.193-.018-.577-.018-.771v-7.984c0-7.232,5.948-12.181,13.033-13.759C45.857,183.225,51.166,183.076,51.639,183.076Z" transform="translate(-31.904 -182.632)" fill="#c3c2c2"/><path d="M51.422,183.14a28.491,28.491,0,0,1,5.7.578,13.632,13.632,0,0,1,6,2.892,13.281,13.281,0,0,1,3.493,6.367,25.774,25.774,0,0,1,.635,5.674c0,.586-.2,6.308-.334,6.844C65.223,212.21,60.2,217.835,52.9,217.835H45.724c-.372,0-1.186-.021-1.547-.061a13.72,13.72,0,0,1-7.938-3.334,13.066,13.066,0,0,1-3.768-8.588c-.011-.182-.018-.583-.018-.768v-7.948c0-7.16,5.84-12.117,12.817-13.713C45.77,183.307,50.882,183.14,51.422,183.14Z" transform="translate(-31.904 -182.632)" fill="#c4c3c3"/><path d="M51.205,183.2a31.154,31.154,0,0,1,5.8.546,13.582,13.582,0,0,1,6.119,2.877,13.242,13.242,0,0,1,3.472,6.5,28.176,28.176,0,0,1,.6,5.767c0,.658-.219,6.157-.376,6.758-1.715,6.607-6.733,12.123-13.951,12.123H45.721c-.351,0-1.2-.019-1.54-.058a13.684,13.684,0,0,1-7.922-3.284,13.062,13.062,0,0,1-3.721-8.565c-.01-.171-.016-.589-.016-.764v-7.914c0-7.087,5.73-12.051,12.6-13.668C45.683,183.388,50.6,183.2,51.205,183.2Z" transform="translate(-31.904 -182.632)" fill="#c5c4c4"/><path d="M50.989,183.266a34.216,34.216,0,0,1,5.89.514,13.527,13.527,0,0,1,6.239,2.862,13.206,13.206,0,0,1,3.452,6.631,30.959,30.959,0,0,1,.564,5.86c0,.732-.239,6.005-.417,6.672-1.735,6.5-6.753,11.908-13.884,11.908H45.718c-.33,0-1.214-.019-1.534-.054a13.65,13.65,0,0,1-7.9-3.234,13.048,13.048,0,0,1-3.673-8.544c-.01-.161-.015-.6-.015-.76v-7.879c0-7.015,5.62-11.987,12.383-13.623C45.6,183.467,50.315,183.266,50.989,183.266Z" transform="translate(-31.904 -182.632)" fill="#c6c5c5"/><path d="M50.773,183.33a37.737,37.737,0,0,1,5.984.481,13.5,13.5,0,0,1,6.358,2.848,13.19,13.19,0,0,1,3.431,6.761,34.083,34.083,0,0,1,.528,5.953c0,.8-.258,5.855-.458,6.586-1.756,6.4-6.773,11.692-13.817,11.692H45.715c-.309,0-1.227-.017-1.528-.051a13.615,13.615,0,0,1-7.888-3.184,13.041,13.041,0,0,1-3.625-8.521c-.009-.152-.014-.6-.014-.756v-7.844c0-6.943,5.509-11.922,12.167-13.578C45.509,183.547,50.032,183.33,50.773,183.33Z" transform="translate(-31.904 -182.632)" fill="#c7c6c6"/><path d="M50.557,183.393a41.777,41.777,0,0,1,6.078.449,13.479,13.479,0,0,1,6.477,2.834,13.185,13.185,0,0,1,3.411,6.893,37.75,37.75,0,0,1,.493,6.047,61.665,61.665,0,0,1-.5,6.5c-1.776,6.294-6.793,11.477-13.75,11.477H45.711c-.288,0-1.241-.016-1.521-.047a13.585,13.585,0,0,1-7.872-3.135,13.031,13.031,0,0,1-3.577-8.5c-.009-.141-.014-.609-.014-.752v-7.809c0-6.87,5.4-11.856,11.952-13.533C45.423,183.625,49.749,183.393,50.557,183.393Z" transform="translate(-31.904 -182.632)" fill="#c8c7c7"/><path d="M50.341,183.457a46.479,46.479,0,0,1,6.171.416,13.459,13.459,0,0,1,6.6,2.819,13.173,13.173,0,0,1,3.39,7.023,41.927,41.927,0,0,1,.457,6.14,53.908,53.908,0,0,1-.541,6.413c-1.8,6.192-6.812,11.262-13.681,11.262H45.708c-.267,0-1.255-.015-1.514-.044a13.547,13.547,0,0,1-7.855-3.085,13.028,13.028,0,0,1-3.53-8.478c-.008-.131-.012-.615-.012-.748V197.4c0-6.8,5.285-11.791,11.736-13.487A52.4,52.4,0,0,1,50.341,183.457Z" transform="translate(-31.904 -182.632)" fill="#c9c8c9"/><path d="M50.126,183.52a51.85,51.85,0,0,1,6.265.384,13.461,13.461,0,0,1,6.714,2.8,13.186,13.186,0,0,1,3.37,7.154,46.806,46.806,0,0,1,.421,6.232,47.474,47.474,0,0,1-.582,6.326c-1.819,6.091-6.831,11.048-13.614,11.048h-7c-.246,0-1.268-.014-1.508-.041a13.515,13.515,0,0,1-7.837-3.035,13.014,13.014,0,0,1-3.482-8.456c-.008-.12-.011-.622-.011-.745v-7.74c0-6.726,5.171-11.726,11.52-13.442A46.3,46.3,0,0,1,50.126,183.52Z" transform="translate(-31.904 -182.632)" fill="#cac9ca"/><path d="M49.911,183.584a58.386,58.386,0,0,1,6.358.351,13.467,13.467,0,0,1,6.833,2.79,13.2,13.2,0,0,1,3.35,7.284,52.765,52.765,0,0,1,.386,6.325,42.074,42.074,0,0,1-.623,6.24c-1.84,5.991-6.851,10.834-13.547,10.834H45.7c-.226,0-1.283-.012-1.5-.037a13.481,13.481,0,0,1-7.821-2.986,13.012,13.012,0,0,1-3.435-8.434c-.006-.111-.01-.629-.01-.741v-7.7c0-6.654,5.058-11.659,11.305-13.4A41.152,41.152,0,0,1,49.911,183.584Z" transform="translate(-31.904 -182.632)" fill="#cbcbcb"/><path d="M49.7,183.647c.659,0,5.863.113,6.451.319a13.467,13.467,0,0,1,6.95,2.775,13.213,13.213,0,0,1,3.329,7.414,59.763,59.763,0,0,1,.351,6.417,37.5,37.5,0,0,1-.664,6.154c-1.862,5.891-6.871,10.62-13.48,10.62H45.7c-.205,0-1.3-.012-1.495-.034a13.452,13.452,0,0,1-7.8-2.935,13.005,13.005,0,0,1-3.387-8.413c-.006-.1-.01-.635-.01-.736v-7.669c0-6.583,4.943-11.593,11.091-13.352A36.761,36.761,0,0,1,49.7,183.647Z" transform="translate(-31.904 -182.632)" fill="#ccc"/><path d="M49.483,183.71c.593,0,6.015.1,6.543.287a13.492,13.492,0,0,1,7.069,2.76A13.245,13.245,0,0,1,66.4,194.3c.2.524.316,5.919.316,6.509a33.434,33.434,0,0,1-.705,6.068c-1.885,5.795-6.891,10.407-13.413,10.407H45.7c-.185,0-1.31-.011-1.49-.031a13.409,13.409,0,0,1-7.787-2.886,13,13,0,0,1-3.34-8.39c-.006-.09-.008-.641-.008-.733v-7.635c0-6.511,4.827-11.526,10.876-13.306A32.923,32.923,0,0,1,49.483,183.71Z" transform="translate(-31.904 -182.632)" fill="#cdcdcd"/><path d="M49.269,183.774c.526,0,6.166.09,6.636.255a13.507,13.507,0,0,1,7.186,2.746,13.275,13.275,0,0,1,3.289,7.673c.181.465.28,6.076.28,6.6a29.9,29.9,0,0,1-.746,5.983c-1.906,5.7-6.909,10.193-13.345,10.193H45.694c-.164,0-1.324-.009-1.483-.027a13.384,13.384,0,0,1-7.77-2.836,12.993,12.993,0,0,1-3.292-8.368c0-.08-.007-.647-.007-.729v-7.6c0-6.439,4.709-11.46,10.661-13.261A29.622,29.622,0,0,1,49.269,183.774Z" transform="translate(-31.904 -182.632)" fill="#cecece"/><path d="M49.055,183.837c.46,0,6.319.079,6.728.223a13.527,13.527,0,0,1,7.3,2.732,13.308,13.308,0,0,1,3.269,7.8c.158.407.245,6.234.245,6.692a26.916,26.916,0,0,1-.787,5.9c-1.93,5.6-6.929,9.981-13.278,9.981H45.691c-.143,0-1.338-.008-1.476-.024a13.352,13.352,0,0,1-7.754-2.787,12.993,12.993,0,0,1-3.245-8.347c0-.07-.006-.654-.006-.724v-7.565c0-6.368,4.591-11.393,10.448-13.216A26.69,26.69,0,0,1,49.055,183.837Z" transform="translate(-31.904 -182.632)" fill="#cfcfcf"/><path d="M48.842,183.9c.394,0,6.47.068,6.821.191a13.567,13.567,0,0,1,7.421,2.717,13.349,13.349,0,0,1,3.248,7.931c.136.348.21,6.391.21,6.783a24.248,24.248,0,0,1-.828,5.812A14.179,14.179,0,0,1,52.5,217.1H45.688c-.123,0-1.351-.007-1.47-.021a13.321,13.321,0,0,1-7.737-2.737,12.986,12.986,0,0,1-3.2-8.325c0-.06-.006-.66-.006-.721v-7.53c0-6.3,4.472-11.325,10.233-13.17A24.106,24.106,0,0,1,48.842,183.9Z" transform="translate(-31.904 -182.632)" fill="#d0d0d0"/><path d="M48.63,183.964c.328,0,6.62.056,6.912.159a13.6,13.6,0,0,1,7.538,2.7,13.394,13.394,0,0,1,3.228,8.059c.113.29.175,6.548.175,6.875a21.913,21.913,0,0,1-.869,5.727,14.131,14.131,0,0,1-13.145,9.556H45.685c-.1,0-1.364-.006-1.464-.017a13.291,13.291,0,0,1-7.72-2.689,12.985,12.985,0,0,1-3.151-8.3c0-.05,0-.666,0-.717v-7.5c0-6.225,4.353-11.258,10.021-13.126A21.878,21.878,0,0,1,48.63,183.964Z" transform="translate(-31.904 -182.632)" fill="#d1d1d1"/><path d="M48.417,184.028c.262,0,6.77.044,7,.127a13.643,13.643,0,0,1,7.656,2.688,13.451,13.451,0,0,1,3.207,8.188c.09.232.14,6.7.14,6.966a19.846,19.846,0,0,1-.909,5.641,14.087,14.087,0,0,1-13.078,9.344H45.682c-.082,0-1.378,0-1.458-.014a13.261,13.261,0,0,1-7.7-2.639,12.982,12.982,0,0,1-3.1-8.28c0-.04,0-.673,0-.713v-7.461a14.01,14.01,0,0,1,9.807-13.08A19.868,19.868,0,0,1,48.417,184.028Z" transform="translate(-31.904 -182.632)" fill="#d2d2d2"/><path d="M48.2,184.091c.2,0,6.92.034,7.1.1a13.683,13.683,0,0,1,7.771,2.673,13.5,13.5,0,0,1,3.188,8.316c.067.173.1,6.86.1,7.056a18,18,0,0,1-.95,5.556A14.043,14.043,0,0,1,52.4,216.92H45.679c-.061,0-1.391,0-1.451-.011a13.225,13.225,0,0,1-7.686-2.59,12.984,12.984,0,0,1-3.056-8.258c0-.03,0-.679,0-.709v-7.426a13.967,13.967,0,0,1,9.594-13.035A18.111,18.111,0,0,1,48.2,184.091Z" transform="translate(-31.904 -182.632)" fill="#d3d3d3"/><path d="M47.993,184.154c.131,0,7.07.023,7.187.064a13.736,13.736,0,0,1,7.889,2.659,13.556,13.556,0,0,1,3.166,8.443c.045.116.07,7.016.07,7.147a16.363,16.363,0,0,1-.99,5.471,14,14,0,0,1-12.943,8.921H45.677c-.04,0-1.4,0-1.444-.007a13.206,13.206,0,0,1-7.67-2.541,12.983,12.983,0,0,1-3.008-8.237c0-.02,0-.685,0-.705v-7.391a13.927,13.927,0,0,1,9.381-12.989A16.516,16.516,0,0,1,47.993,184.154Z" transform="translate(-31.904 -182.632)" fill="#d4d4d4"/><path d="M47.781,184.218c.066,0,7.221.011,7.279.031a13.788,13.788,0,0,1,8,2.644,13.619,13.619,0,0,1,3.146,8.57c.022.058.035,7.172.035,7.238a14.917,14.917,0,0,1-1.031,5.386,13.967,13.967,0,0,1-12.877,8.71H45.674c-.02,0-1.418,0-1.438,0a13.166,13.166,0,0,1-7.651-2.492,12.975,12.975,0,0,1-2.961-8.214c0-.01,0-.692,0-.7V198.03a13.89,13.89,0,0,1,9.169-12.944A15.1,15.1,0,0,1,47.781,184.218Z" transform="translate(-31.904 -182.632)" fill="#d5d5d5"/><path d="M47.571,184.281a13.882,13.882,0,0,0-13.881,13.8v8.02a12.987,12.987,0,0,0,2.915,8.192,13.144,13.144,0,0,0,7.635,2.443h8.066a13.882,13.882,0,0,0,13.881-13.8v-7.328a13.678,13.678,0,0,0-3.126-8.7,13.842,13.842,0,0,0-8.12-2.629Z" transform="translate(-31.904 -182.632)" fill="#d6d6d6"/><g transform="translate(1.786 1.649)"><path d="M36.608,214.593l-.018.022a13.656,13.656,0,0,0,9.352,3.708h7.4A14.4,14.4,0,0,0,67.726,204v-6.672a14.238,14.238,0,0,0-4.02-9.9c-.266-.275-.541-.541-.828-.794a13.927,13.927,0,0,0-7.735-2.352H47.7A14.025,14.025,0,0,0,33.69,198.235v8.109A13.136,13.136,0,0,0,36.608,214.593Z" transform="translate(-33.69 -184.281)" fill="#e4e3e3"/><path d="M47.694,184.281a14.015,14.015,0,0,0-14,13.943v8.1a13.314,13.314,0,0,0,2.9,8.266,13.621,13.621,0,0,0,7.915,3.548c.432.045.963.068,1.407.068h7.357a14.358,14.358,0,0,0,14.346-14.285v-6.649c0-.318-.011-.7-.034-1.015a14.209,14.209,0,0,0-3.923-8.87q-.4-.407-.833-.781a13.92,13.92,0,0,0-7.441-2.325l-.275,0Z" transform="translate(-33.69 -184.281)" fill="#e3e3e2"/><path d="M47.684,184.281A14,14,0,0,0,33.69,198.214v8.1a13.291,13.291,0,0,0,2.9,8.26,13.579,13.579,0,0,0,7.894,3.463c.4.041.989.063,1.4.063h7.312a14.321,14.321,0,0,0,14.311-14.248v-6.627c0-.293-.01-.724-.031-1.012a14.167,14.167,0,0,0-3.86-8.857q-.4-.4-.839-.767a13.924,13.924,0,0,0-7.424-2.3l-.272,0Z" transform="translate(-33.69 -184.281)" fill="#e2e2e1"/><path d="M47.675,184.281A14,14,0,0,0,33.69,198.2v8.091a13.259,13.259,0,0,0,2.9,8.255,13.534,13.534,0,0,0,7.872,3.377c.365.038,1.015.057,1.39.057h7.266A14.285,14.285,0,0,0,67.4,203.772v-6.6c0-.268-.01-.744-.028-1.008a14.126,14.126,0,0,0-3.8-8.844q-.407-.392-.844-.753a13.905,13.905,0,0,0-7.406-2.28l-.269,0Z" transform="translate(-33.69 -184.281)" fill="#e1e1e0"/><path d="M47.666,184.281A13.985,13.985,0,0,0,33.69,198.192v8.084a13.234,13.234,0,0,0,2.9,8.249,13.485,13.485,0,0,0,7.85,3.292c.332.034,1.041.052,1.382.052h7.221A14.248,14.248,0,0,0,67.286,203.7v-6.582c0-.243-.009-.764-.026-1a14.077,14.077,0,0,0-3.738-8.83q-.41-.386-.85-.739a13.888,13.888,0,0,0-7.389-2.257l-.267,0Z" transform="translate(-33.69 -184.281)" fill="#e0e0df"/><path d="M47.657,184.281a13.975,13.975,0,0,0-13.967,13.9v8.078A13.21,13.21,0,0,0,36.6,214.5a13.442,13.442,0,0,0,7.829,3.206c.3.031,1.066.047,1.372.047h7.177a14.212,14.212,0,0,0,14.2-14.137v-6.56c0-.219-.007-.785-.023-1a14.031,14.031,0,0,0-3.676-8.817q-.413-.379-.855-.725a13.89,13.89,0,0,0-7.372-2.233c-.059,0-.2,0-.265,0Z" transform="translate(-33.69 -184.281)" fill="#dfdfde"/><path d="M47.647,184.281a13.965,13.965,0,0,0-13.957,13.89v8.072A13.187,13.187,0,0,0,36.6,214.48,13.4,13.4,0,0,0,44.4,217.6c.264.028,1.092.042,1.364.042H52.9a14.174,14.174,0,0,0,14.167-14.1v-6.538c0-.195-.006-.805-.021-1a13.992,13.992,0,0,0-3.614-8.8q-.416-.372-.86-.711a13.882,13.882,0,0,0-7.355-2.212l-.261,0Z" transform="translate(-33.69 -184.281)" fill="#dededd"/><path d="M47.638,184.281A13.955,13.955,0,0,0,33.69,198.16v8.065a13.161,13.161,0,0,0,2.907,8.232,13.367,13.367,0,0,0,7.786,3.036c.232.024,1.118.036,1.356.036h7.086a14.138,14.138,0,0,0,14.131-14.062v-6.516c0-.17-.006-.826-.018-.993a13.954,13.954,0,0,0-3.554-8.791q-.419-.364-.865-.7a13.874,13.874,0,0,0-7.338-2.188l-.259,0Z" transform="translate(-33.69 -184.281)" fill="#dddddc"/><path d="M47.629,184.281A13.944,13.944,0,0,0,33.69,198.149v8.059a13.136,13.136,0,0,0,2.908,8.226,13.319,13.319,0,0,0,7.764,2.951c.2.021,1.143.031,1.347.031H52.75a14.1,14.1,0,0,0,14.1-14.025V196.9c0-.146-.006-.847-.016-.99a13.911,13.911,0,0,0-3.492-8.778q-.421-.358-.871-.684a13.863,13.863,0,0,0-7.321-2.165l-.255,0Z" transform="translate(-33.69 -184.281)" fill="#dcdcdb"/><path d="M47.619,184.281A13.934,13.934,0,0,0,33.69,198.138v8.053a13.106,13.106,0,0,0,2.91,8.221,13.294,13.294,0,0,0,7.743,2.866c.165.017,1.169.025,1.339.025h7a14.065,14.065,0,0,0,14.06-13.987v-6.47c0-.122,0-.867-.014-.987a13.866,13.866,0,0,0-3.431-8.764q-.425-.351-.876-.669a13.848,13.848,0,0,0-7.3-2.143l-.254,0Z" transform="translate(-33.69 -184.281)" fill="#dbdbda"/><path d="M47.61,184.281a13.924,13.924,0,0,0-13.92,13.846v8.046a13.085,13.085,0,0,0,2.911,8.216,13.258,13.258,0,0,0,7.721,2.78c.132.014,1.194.021,1.33.021H52.6a14.029,14.029,0,0,0,14.025-13.95v-6.448c0-.1,0-.887-.01-.983a13.833,13.833,0,0,0-3.37-8.751q-.428-.345-.882-.656a13.856,13.856,0,0,0-7.286-2.12H47.61Z" transform="translate(-33.69 -184.281)" fill="#dadada"/><path d="M47.6,184.281a13.913,13.913,0,0,0-13.91,13.834v8.04a13.059,13.059,0,0,0,2.912,8.21,13.222,13.222,0,0,0,7.7,2.7c.1.011,1.22.016,1.322.016h6.9a13.992,13.992,0,0,0,13.989-13.913v-6.425c0-.073,0-.908-.008-.979a13.791,13.791,0,0,0-3.309-8.738q-.431-.338-.887-.641a13.834,13.834,0,0,0-7.269-2.1H47.6Z" transform="translate(-33.69 -184.281)" fill="#d9d9d9"/><path d="M47.59,184.281A13.9,13.9,0,0,0,33.69,198.1v8.033a13.038,13.038,0,0,0,2.912,8.2,13.2,13.2,0,0,0,7.678,2.611c.066.007,1.246.01,1.313.01h6.86a13.955,13.955,0,0,0,13.953-13.875v-6.4c0-.048,0-.928-.006-.975a13.747,13.747,0,0,0-3.248-8.724q-.433-.331-.892-.628a13.829,13.829,0,0,0-7.252-2.075H47.59Z" transform="translate(-33.69 -184.281)" fill="#d8d8d8"/><path d="M47.581,184.281A13.892,13.892,0,0,0,33.69,198.093v8.027a13.011,13.011,0,0,0,2.914,8.2,13.168,13.168,0,0,0,7.657,2.527c.033,0,1.271.005,1.3.005H52.38A13.919,13.919,0,0,0,66.3,203.012V196.63c0-.024,0-.949,0-.972a13.717,13.717,0,0,0-3.188-8.711q-.435-.324-.9-.614a13.825,13.825,0,0,0-7.234-2.052H47.581Z" transform="translate(-33.69 -184.281)" fill="#d7d7d7"/><path d="M47.571,184.281a13.882,13.882,0,0,0-13.881,13.8v8.02a12.987,12.987,0,0,0,2.915,8.192,13.144,13.144,0,0,0,7.635,2.443h8.066a13.882,13.882,0,0,0,13.881-13.8v-7.328a13.678,13.678,0,0,0-3.126-8.7,13.842,13.842,0,0,0-8.12-2.629Z" transform="translate(-33.69 -184.281)" fill="#d6d6d6"/></g></g></g><g transform="translate(36.064 155.046)"><g transform="translate(1 45.638)"><path d="M23.278,49.69a17.988,17.988,0,0,0-.438-3.48,6.634,6.634,0,0,0-.357-1.156.644.644,0,0,0-.713-.4,4.968,4.968,0,0,0-.521.133,22.059,22.059,0,0,0-4.833,2.35,1.316,1.316,0,0,1-.751.157c-.592-.043-1.179-.191-1.771-.219a19.876,19.876,0,0,0-4.381.229.967.967,0,0,1-.635-.108,18.674,18.674,0,0,0-5.346-2.517c-.293-.078-.594-.037-.668.08a.866.866,0,0,0-.108.224,19.864,19.864,0,0,0-.582,2.231,11.715,11.715,0,0,0-.217,2.731,1.7,1.7,0,0,1-.422,1.311A7.389,7.389,0,0,0,0,55.8a13.018,13.018,0,0,0,.6,4.211,7.794,7.794,0,0,0,3.913,4.712,11.719,11.719,0,0,0,5.135,1.233c1.61.056,3.224.009,4.836.018a14.922,14.922,0,0,0,4.755-.639,8.14,8.14,0,0,0,3.925-2.6,10.275,10.275,0,0,0,2.063-6.327,7.562,7.562,0,0,0-1.317-4.86A2.82,2.82,0,0,1,23.278,49.69Zm-3.111,13.5a5.508,5.508,0,0,1-2.408,1.09,18.655,18.655,0,0,1-5.173.432A18.575,18.575,0,0,1,7.5,64.284a5.133,5.133,0,0,1-3.144-1.836c-1.249-1.685-1.568-4.891.5-6.641a3.038,3.038,0,0,1,1.807-.773c.765-.049,1.531-.144,2.3-.135,1.929.023,3.857.119,5.786.133.881.006,1.768-.2,2.643-.146a6.924,6.924,0,0,1,2.352.514,3.574,3.574,0,0,1,2.045,2.88A5.047,5.047,0,0,1,20.167,63.188Z" transform="translate(0 -44.638)" fill="#242166"/><ellipse cx="1.839" cy="2.457" rx="1.839" ry="2.457" transform="translate(15.185 12.423)" fill="#242166"/><ellipse cx="1.839" cy="2.457" rx="1.839" ry="2.457" transform="translate(6.412 12.423)" fill="#242166"/></g></g></g></svg>