<svg xmlns="http://www.w3.org/2000/svg" width="68.077" height="71.134" viewBox="0 0 68.077 71.134">
  <g id="instructions" transform="translate(-11 0)">
    <path id="Path_211" data-name="Path 211" d="M104.817,142.964h5.412a2.68,2.68,0,0,0,2.68-2.673v-5.4a2.68,2.68,0,0,0-2.68-2.673h-5.412a2.678,2.678,0,0,0-2.676,2.673v5.4A2.678,2.678,0,0,0,104.817,142.964Zm.1-7.966h5.21v5.188h-5.21Z" transform="translate(-78.478 -113.849)" fill="#21dad7"/>
    <path id="Path_212" data-name="Path 212" d="M74.591,38.828a4.652,4.652,0,0,0-1.943.423,4.284,4.284,0,0,0-2.859-2.838V6.556A6.569,6.569,0,0,0,63.221,0H17.568A6.569,6.569,0,0,0,11,6.556v3.7A3.155,3.155,0,0,0,14.154,13.4h1.354v52.18a3.155,3.155,0,0,0,3.154,3.149H55.43a14.272,14.272,0,0,0,7.8,2.4,13.727,13.727,0,0,0,4.513-.773,16.078,16.078,0,0,0,8.12-6.592,21.542,21.542,0,0,0,3.216-11.807V43.484a4.423,4.423,0,0,0-4.486-4.656Zm-56.3,26.754V13.4h12.73a1.389,1.389,0,1,0,0-2.778H14.154a.378.378,0,0,1-.375-.371v-3.7a3.788,3.788,0,0,1,3.789-3.777H57.856a6.51,6.51,0,0,0-1.2,3.777v3.7a.378.378,0,0,1-.375.371H43.521a1.389,1.389,0,1,0,0,2.778H56.278a3.155,3.155,0,0,0,3.154-3.149v-3.7a3.789,3.789,0,0,1,7.579,0V36.413a4.553,4.553,0,0,0-.551.21,4.376,4.376,0,0,0-4.249-3.052,4.66,4.66,0,0,0-1.705.322V26.071a4.487,4.487,0,1,0-8.968,0V46.146c0,.632.012,1.209.022,1.718,0,.055,0,.11,0,.166l-3.229-3.462a4.63,4.63,0,0,0-6.615-.5,5.631,5.631,0,0,0-.683,7.856L50.678,64.3q.688.883,1.427,1.655H18.662A.378.378,0,0,1,18.286,65.583ZM76.3,51.97c.044,7.567-3.673,13.755-9.469,15.766-4.9,1.7-10.122-.222-13.959-5.145L43.227,50.214a2.889,2.889,0,0,1,.3-4.036,1.975,1.975,0,0,1,1.246-.5,2.1,2.1,0,0,1,1.533.786l3.383,3.627c.955,1.023,2.142,2.3,3.459,1.762a2.2,2.2,0,0,0,1.179-2c.044-.536.031-1.2.014-2.044-.01-.5-.021-1.058-.021-1.662V26.071a1.713,1.713,0,1,1,3.41,0v19.89a1.389,1.389,0,0,0,2.779,0V38.227a1.668,1.668,0,0,1,1.705-1.877,1.727,1.727,0,0,1,1.177.441,1.883,1.883,0,0,1,.528,1.437v7.734a1.389,1.389,0,0,0,2.779,0v-5.1a1.668,1.668,0,0,1,1.7-1.879,1.73,1.73,0,0,1,1.177.441,1.885,1.885,0,0,1,.529,1.438v5.1a1.389,1.389,0,0,0,2.779,0V43.484a1.669,1.669,0,0,1,1.707-1.877,1.731,1.731,0,0,1,1.178.441,1.882,1.882,0,0,1,.529,1.436V51.97Z" fill="#242166"/>
    <path id="Path_213" data-name="Path 213" d="M201.721,133.608A1.389,1.389,0,0,0,203.11,135h11.119a1.389,1.389,0,1,0,0-2.778H203.11A1.389,1.389,0,0,0,201.721,133.608Z" transform="translate(-164.223 -113.849)" fill="#c91f66"/>
    <path id="Path_214" data-name="Path 214" d="M211.869,189.557H203.11a1.389,1.389,0,1,0,0,2.778h8.759a1.389,1.389,0,1,0,0-2.778Z" transform="translate(-164.223 -163.221)" fill="#c91f66"/>
    <path id="Path_215" data-name="Path 215" d="M103.53,249.7h21.22a1.389,1.389,0,1,0,0-2.778H103.53a1.389,1.389,0,1,0,0,2.778Z" transform="translate(-78.478 -212.616)" fill="#242166"/>
    <path id="Path_216" data-name="Path 216" d="M103.53,307.038h11.447a1.389,1.389,0,1,0,0-2.778H103.53a1.389,1.389,0,1,0,0,2.778Z" transform="translate(-78.478 -261.988)" fill="#242166"/>
    <path id="Path_217" data-name="Path 217" d="M103.53,364.4h10.081a1.389,1.389,0,1,0,0-2.778H103.53a1.389,1.389,0,1,0,0,2.778Z" transform="translate(-78.478 -311.384)" fill="#242166"/>
    <path id="Path_218" data-name="Path 218" d="M118.32,418.964H103.53a1.389,1.389,0,1,0,0,2.778h14.79a1.389,1.389,0,1,0,0-2.778Z" transform="translate(-78.478 -360.756)" fill="#242166"/>
    <path id="Path_219" data-name="Path 219" d="M191.462,79.247h.008a1.393,1.393,0,1,0-.008,0Z" transform="translate(-154.194 -65.845)"/>
  </g>
</svg>
