<svg xmlns="http://www.w3.org/2000/svg" width="720.75" height="192.857" viewBox="0 0 720.75 192.857"><g transform="translate(-163.669 -83)"><g transform="translate(163.669 83)"><path d="M421.253,1135.6a66.474,66.474,0,0,0-66.454-66.456H294.848a66.462,66.462,0,0,0-66.454,66.456v59.948A66.828,66.828,0,0,0,290.77,1262H354.8a66.464,66.464,0,0,0,66.454-66.456Z" transform="translate(-228.394 -1069.143)" fill="#fff"/><g transform="translate(6.507 6.508)"><path d="M292.5,1103.442l29.975-29.973H292.5Z" transform="translate(-202.577 -1073.468)" fill="#248332"/><path d="M322.476,1073.47,292.5,1103.443h29.975Z" transform="translate(-202.577 -1073.468)" fill="#145629"/><path d="M272.576,1073.468l29.972,29.975,0-29.975Z" transform="translate(-212.623 -1073.468)" fill="#28bef3"/><path d="M252.647,1173.1l29.978,29.975,0-29.975Z" transform="translate(-222.672 -1023.232)" fill="#945b38"/><path d="M272.574,1203.074l29.975-29.975H272.577Z" transform="translate(-212.624 -1023.232)" fill="#4d201a"/><path d="M302.548,1173.1l-29.972,29.975h29.972Z" transform="translate(-212.623 -1023.232)" fill="#9a6435"/><path d="M312.428,1203.073,342.4,1173.1H312.428Z" transform="translate(-192.529 -1023.231)" fill="#e8272d"/><path d="M252.647,1103.442l29.975-29.975v29.975Z" transform="translate(-222.672 -1073.468)" fill="#76187e"/><path d="M252.647,1143.3l23.465-23.355h0l-6.562-6.62h-16.9Z" transform="translate(-222.672 -1053.373)" fill="#880f50"/><path d="M272.574,1073.468l29.972,29.975H272.574Z" transform="translate(-212.624 -1073.468)" fill="#0063b0"/><path d="M262.695,1133.248l-29.975,29.975v-29.975Z" transform="translate(-232.72 -1043.327)" fill="#df8200"/><path d="M262.694,1127.829l-6.626-5.979-23.345,23.429h29.971Z" transform="translate(-232.719 -1085.33)" fill="#e8272d"/><path d="M232.722,1113.322l29.971,29.975v-29.975Z" transform="translate(-232.719 -1053.373)" fill="#cc004a"/><path d="M282.569,1148.518l-6.517-6.5-23.406,23.372h29.975l-.053-16.876Z" transform="translate(-222.672 -1075.47)" fill="#540042"/><path d="M342.4,1143.3l-29.975-29.973v29.971Z" transform="translate(-192.529 -1053.373)" fill="#0063b0"/><path d="M312.428,1113.322,342.4,1143.3v-29.973Z" transform="translate(-192.529 -1053.373)" fill="#009b8b"/><path d="M362.328,1113.323l-29.975,29.972,0-29.973Z" transform="translate(-182.482 -1053.373)" fill="#8abb2a"/><path d="M332.356,1143.3l29.972-29.973V1143.3Z" transform="translate(-182.481 -1053.373)" fill="#145629"/><path d="M252.647,1133.248l29.975,29.975v-29.975Z" transform="translate(-222.672 -1043.327)" fill="#ef5713"/><path d="M282.622,1163.223l-29.975-29.974v29.974Z" transform="translate(-222.672 -1043.326)" fill="#ffbe00"/><path d="M262.695,1183.147l-29.975-29.972h29.975Z" transform="translate(-232.72 -1033.279)" fill="#ffbe00"/><path d="M232.72,1113.322l29.975,29.971H232.72Z" transform="translate(-232.72 -1053.373)" fill="#a32e0d"/><path d="M342.4,1183.147l-29.972-29.975H342.4Z" transform="translate(-192.528 -1033.278)" fill="#2b002e"/><path d="M332.356,1133.248l29.972,29.975v-29.975Z" transform="translate(-182.481 -1043.327)" fill="#009b8b"/><path d="M362.328,1163.223l-29.975-29.974,0,29.974Z" transform="translate(-182.482 -1043.326)" fill="#0063b0"/><path d="M232.72,1163.223l29.975-29.974v29.974Z" transform="translate(-232.72 -1043.326)" fill="#ef5713"/><path d="M252.647,1183.147l29.975-29.972H252.647Z" transform="translate(-222.672 -1033.279)" fill="#df8200"/><path d="M282.622,1153.175l-29.975,29.972h29.975Z" transform="translate(-222.672 -1033.279)" fill="#9a6435"/><path d="M342.4,1183.147l-29.975-29.972v29.972Z" transform="translate(-192.529 -1033.279)" fill="#540042"/><path d="M362.327,1153.175l-29.972,29.972v-29.972Z" transform="translate(-182.481 -1033.279)" fill="#0d94d5"/><path d="M342.406,1103.443l-29.978-29.973v29.973Z" transform="translate(-192.529 -1073.468)" fill="#8abb2a"/><path d="M312.428,1223.7h0Z" transform="translate(-192.529 -1163.752)" fill="#003c16"/><path d="M362.328,1123.37,332.353,1093.4l0,29.973Z" transform="translate(-182.482 -1063.421)" fill="#248332"/><path d="M332.355,1093.4Z" transform="translate(-182.481 -1063.42)" fill="#248332"/><path d="M312.428,1073.47h0v29.973h0V1073.47l29.975,29.973v0Z" transform="translate(-192.529 -1073.468)" fill="#248332"/><path d="M332.355,1093.4h0l29.972,29.975h0a59.582,59.582,0,0,0-8.036-29.975Z" transform="translate(-182.481 -1063.421)" fill="#8abb2a"/><path d="M332.355,1078.814v21.933h21.936A60.286,60.286,0,0,0,332.355,1078.814Z" transform="translate(-182.481 -1070.773)" fill="#ffe700"/><path d="M342.4,1081.51a59.636,59.636,0,0,0-29.975-8.04l29.975,29.973Z" transform="translate(-192.529 -1073.469)" fill="#dad800"/><path d="M256.085,1100h0L232.72,1123.37h0a59.658,59.658,0,0,1,8.036-29.975h8.693Z" transform="translate(-232.72 -1063.421)" fill="#e22485"/><path d="M260,1078.814l0,21.933H238.062A60.268,60.268,0,0,1,260,1078.814Z" transform="translate(-230.026 -1070.773)" fill="#cc004a"/><path d="M252.65,1081.51a59.6,59.6,0,0,1,29.969-8.04l-29.972,29.973Z" transform="translate(-222.672 -1073.469)" fill="#e50019"/><path d="M262.695,1183.149v0l-29.975-29.972h0a59.652,59.652,0,0,0,8.036,29.975Z" transform="translate(-232.72 -1033.279)" fill="#4d201a"/><path d="M260,1195.035V1173.1H238.062A60.311,60.311,0,0,0,260,1195.035Z" transform="translate(-230.026 -1023.231)" fill="#784628"/><path d="M252.647,1195.035a59.651,59.651,0,0,0,29.972,8.039L252.647,1173.1Z" transform="translate(-222.672 -1023.231)" fill="#9a6435"/><path d="M332.355,1183.149v0l29.972-29.972h0a59.576,59.576,0,0,1-8.036,29.975Z" transform="translate(-182.481 -1033.279)" fill="#28bef3"/><path d="M332.355,1195.035V1173.1h21.936A60.282,60.282,0,0,1,332.355,1195.035Z" transform="translate(-182.481 -1023.231)" fill="#76187e"/><path d="M342.4,1195.035a59.65,59.65,0,0,1-29.975,8.039L342.4,1173.1Z" transform="translate(-192.529 -1023.231)" fill="#e20064"/><path d="M312.428,1123.369h0l29.978-29.975H342.4Z" transform="translate(-192.529 -1063.421)" fill="#248332"/><path d="M292.5,1103.442l29.975-29.973H292.5Z" transform="translate(-202.577 -1073.468)" fill="#248332"/><path d="M272.574,1203.074l29.975-29.975H272.577Z" transform="translate(-212.624 -1053.136)" fill="#e81010"/><path d="M302.548,1173.1l-29.972,29.975h29.972Z" transform="translate(-212.623 -1053.136)" fill="#ff5310"/><path d="M252.647,1133.248l29.975,29.975v-17.481l-12.4-12.494Z" transform="translate(-192.768 -1043.327)" fill="#ff2e12"/><path d="M282.622,1163.223l-29.975-29.974v29.974Z" transform="translate(-192.768 -1043.326)" fill="#ffbe00"/><path d="M270.44,1206.272l-17.793-17.112v17.112Z" transform="translate(-192.768 -1116.28)" fill="#ff960b"/><path d="M269.579,1205.471l-17.049-17.6.027,17.409Z" transform="translate(-222.581 -1145.419)" fill="#ffbe00"/><path d="M252.647,1133.248l29.975,29.975v-29.975Z" transform="translate(-192.768 -1103.365)" fill="#1194ed"/></g></g><g transform="translate(404.419 104.793)"><text transform="translate(210.663 90.117)" fill="#fff" font-size="93" font-family="Montserrat-Bold, Montserrat" font-weight="700" letter-spacing="-0.01em"><tspan x="-210.04" y="0">YFSWAP</tspan></text><text transform="translate(240 138.852)" fill="#c91f66" font-size="37" font-family="Montserrat-Regular, Montserrat" letter-spacing="0.2em"><tspan x="-239.797" y="0">DeFi Yield Farming</tspan></text></g></g></svg>