<svg xmlns="http://www.w3.org/2000/svg" width="14.262" height="14.262" viewBox="0 0 14.262 14.262"><g transform="translate(-374 -289.653)"><g transform="translate(1 1.738)"><path d="M7.131,0A7.131,7.131,0,1,1,0,7.131,7.131,7.131,0,0,1,7.131,0Z" transform="translate(373 287.914)" fill="#f7f7f7"/></g><path d="M2.723,9.88l-1.6-1.6c-.04-.04-.04-.08-.08-.12a.434.434,0,0,1,0-.32c0-.041.04-.08.08-.121l1.6-1.6a.4.4,0,0,1,.561.561L2.362,7.6H7.009a1.181,1.181,0,0,0,1.2-1.2v-.8a.4.4,0,0,1,.8,0v.8a1.983,1.983,0,0,1-2,2H2.362l.921.922a.387.387,0,0,1,0,.561.388.388,0,0,1-.561,0ZM1,4.793v-.8a1.983,1.983,0,0,1,2-2H7.65l-.922-.921a.388.388,0,0,1,0-.562.387.387,0,0,1,.561,0l1.6,1.6c.041.04.08.08.08.12a.434.434,0,0,1,0,.32c-.04.041-.04.08-.08.121l-1.6,1.6a.386.386,0,0,1-.561,0,.387.387,0,0,1,0-.561l.922-.922H3a1.181,1.181,0,0,0-1.2,1.2v.8a.378.378,0,0,1-.4.4A.378.378,0,0,1,1,4.793Z" transform="translate(376 291.529)" fill="#707070"/></g></svg>