<svg xmlns="http://www.w3.org/2000/svg" xmlns:xlink="http://www.w3.org/1999/xlink" width="100.745" height="97.023" viewBox="0 0 100.745 97.023"><defs><linearGradient id="a" x1="0.298" y1="3.043" x2="1.303" y2="3.043" gradientUnits="objectBoundingBox"><stop offset="0" stop-color="#cc7139"/><stop offset="0.995" stop-color="#863839"/></linearGradient><linearGradient id="b" x1="0.797" y1="2.867" x2="0.808" y2="3.136" gradientUnits="objectBoundingBox"><stop offset="0" stop-color="#80d27c"/><stop offset="1"/></linearGradient><linearGradient id="c" x1="1.095" y1="6.677" x2="1.107" y2="7.272" xlink:href="#b"/><linearGradient id="d" x1="-38.609" y1="149.206" x2="-35.619" y2="149.156" gradientUnits="objectBoundingBox"><stop offset="0" stop-color="#c3d8d8"/><stop offset="1" stop-color="#b1aeb3"/></linearGradient><linearGradient id="e" x1="-11.131" y1="40.861" x2="-10.287" y2="40.848" xlink:href="#d"/><linearGradient id="f" x1="1.123" y1="5.784" x2="2.125" y2="5.784" gradientUnits="objectBoundingBox"><stop offset="0" stop-color="#80d27c"/><stop offset="0.109" stop-color="#6fb66b"/><stop offset="0.432" stop-color="#3f683d"/><stop offset="0.698" stop-color="#1d301c"/><stop offset="0.894" stop-color="#080d07"/><stop offset="1"/></linearGradient></defs><g transform="translate(-15.24 -9.203)"><g transform="translate(5.634 71.806) rotate(-34)"><path d="M63.773,4.773s-6.555,1.675-11.8,3.117c-1.583.435-6.79,2.124-13.307,4.265l-1.134.373C22.509,17.47,1.5,24.477,1.1,24.339l-.007,0C.516,24.1-.35,19.567.149,18.578c.265-.525,11.417-3.454,23.568-6.684l4.007-1.067c9.589-2.56,19.128-5.164,23.876-6.8C63.078.064,63.452,0,63.452,0Z" transform="translate(0 17.177)" fill="url(#a)"/><path d="M48.1,9.137c-.375.123-.942.28-1.325.406-3.422-.057-20.607,2.812-22.245,2.967-2.093.2-23.245,6.973-23.8,7.97-.523.949.287,3.6.367,3.856C.517,24.1-.351,19.567.15,18.578c.266-.525,11.449-3.454,23.635-6.684l.374-.1.376-.1.271-.072.733-.195.035-.009.513-.136,1.027-.273C36.96,8.391,46.872,5.7,51.748,4.024,63.258.064,63.634,0,63.634,0l.184,2.723C60.41,5.095,52.058,4.685,42.61,7.47c-5.008,1.476-9.672,2.585-13.485,3.386C34.076,10.747,46.159,8.875,48.1,9.137Z" transform="translate(0 17.177)" opacity="0.43" fill="url(#b)" style="mix-blend-mode:color-dodge;isolation:isolate"/><path d="M0,4.379S9.31,2.023,16.069,1.006A79.453,79.453,0,0,1,26.908,0S19.563.583,16.058,1.271,7.7,3,1.527,4.81A1.621,1.621,0,0,1,0,4.379Z" transform="translate(0.6 30.806)" opacity="0.8" fill="url(#c)" style="mix-blend-mode:color-dodge;isolation:isolate"/><path d="M.038,1.323,9.622,0l.1.29.253.771,1.44,4.4-.7.2-.545.153L1.186,8.325S.928,7.607.657,6.641a20.485,20.485,0,0,1-.465-2Q.169,4.507.15,4.377C.083,3.93.044,3.5.023,3.117v0A13.993,13.993,0,0,1,.017,1.629C.027,1.433.038,1.323.038,1.323Z" transform="translate(62.717 14.739)" fill="url(#d)"/><path d="M25.836.112c5.4.688,13.89,4.745,14.516,8.014.492,2.572-3.711,9.883-7.843,13.48a12.92,12.92,0,0,1-1.337,1.029h0q-.273.181-.542.333a24.1,24.1,0,0,1-2.547,1.178c-6.887,2.817-21.589,7.105-21.96,7.213l-.007,0a72.311,72.311,0,0,1-4.269-9.689v0q-.224-.65-.43-1.308-.059-.188-.115-.376c-.258-.853-.484-1.706-.664-2.54a25.907,25.907,0,0,1-.423-2.709c-.04-.381-.074-.765-.1-1.15q-.027-.364-.046-.73a0,0,0,0,0,0,0A58.008,58.008,0,0,1,.222,5.223C.369,3.447.538,2.242.559,2.1l0-.015L.6,2.076C1.6,1.943,20.634-.551,25.836.112Z" transform="translate(71.561)" fill="url(#e)"/><path d="M2.787,9.587,0,3.9,17.726,0l4.308,2.2Z" transform="translate(76.13 20.344)" opacity="0.56" fill="url(#f)" style="mix-blend-mode:color-dodge;isolation:isolate"/><path d="M10.7,2.542,1.164,5.208S.905,4.49.634,3.524a20.458,20.458,0,0,1-.464-2C.154,1.434.14,1.347.128,1.26.06.813.021.385,0,0,.023.093.426,2.744,1.494,3.433,1.919,3.707,8.724,3.013,10.7,2.542Z" transform="translate(62.747 17.856)" fill="#5e3056" opacity="0.41"/><path d="M31.907,21.606,30.57,22.635l0,0h0c.033-.055,4.245-7.138,4.146-8.826s-2.135-5.433-6.4-8.071C24.19,3.19,1.535,2.144,0,2.076,1,1.943,20.031-.551,25.234.112c5.4.688,13.89,4.745,14.517,8.014C40.242,10.7,36.039,18.009,31.907,21.606Z" transform="translate(72.163 0)" fill="#5e3056" opacity="0.19"/><path d="M.31,0l-.3.1L0,.1A1.211,1.211,0,0,1,.31,0Z" transform="translate(75.263 21.362)" fill="#5e3056" opacity="0.41"/><path d="M.018,1.373,9.965,0l.006.8L9.953.791.146,3.6A9.518,9.518,0,0,1,.018,1.373Z" transform="translate(63.073 15.311)" fill="#bdffeb" style="mix-blend-mode:screen;isolation:isolate"/><path d="M0,2.08S19.623-.156,24.245.434c.317.04.645.093.982.155l.192.8.914-.559a31.4,31.4,0,0,1,7.787,3.1l-1.1,1.049L34.5,4.143c.456.271.889.549,1.292.833l.62.457h0a11.475,11.475,0,0,1,.975.844c.2.281.76.816.676,1.328-.1.624-4.732,2.236-4.732,2.236s4.9-.8,5.176-.413a1.233,1.233,0,0,1,.018,1.015l.043-.067c-1.082,3.922-5.678,10.742-9.527,12.915a24.066,24.066,0,0,1-2.548,1.179c-3.377,1.382-8.638,3.117-13.164,4.54,4.735-1.474,10.555-3.373,14.192-4.862a24.092,24.092,0,0,0,2.548-1.179c4.611-2.6,10.292-11.876,9.724-14.844C39.165,4.857,30.673.8,25.273.112,19.931-.569,0,2.08,0,2.08Z" transform="translate(72.123 0)" fill="#3d2f5b" opacity="0.41"/><path d="M.609,0,1.1.847S.61,3.707.4,5.491.212,12.661.212,12.661h0q-.061-.571-.1-1.15-.027-.364-.046-.73a0,0,0,0,0,0,0A58.007,58.007,0,0,1,.222,3.146C.369,1.369.538.164.559.018Z" transform="translate(72.097 2.078)" fill="#cfe2d0" opacity="0.77" style="mix-blend-mode:screen;isolation:isolate"/><path d="M9.694,0C9.686.051,9.209,3.315,8.62,3.977,8.095,4.568,3.574,6.092,2.1,6.6h0a1.2,1.2,0,0,0-.31.1.542.542,0,0,0-.352.594c.093.586,3.228,7.992,3.228,7.992L4.707,16.6l-.007,0A72.3,72.3,0,0,1,.431,6.915v0Q.206,6.263,0,5.605c.994-.257,6.933-1.576,7.632-2.3A21.779,21.779,0,0,0,9.694,0Z" transform="translate(73.401 14.759)" fill="#5e3056" opacity="0.41"/><g transform="translate(80.423 0.548)" opacity="0.19"><path d="M2.75.021C4.351-.125,5.719.513,5.8,1.447S4.66,3.258,3.059,3.4.09,2.912,0,1.977,1.148.167,2.75.021Z" transform="translate(0 4.229)" fill="#5e3056"/><path d="M.591,0c.346-.031.641.118.661.334S1.008.755.662.786.021.668,0,.452.245.036.591,0Z" transform="translate(8.58 5.809)" fill="#5e3056"/><path d="M.726,0A.8.8,0,1,1,0,.872.8.8,0,0,1,.726,0Z" transform="translate(14.45)" fill="#5e3056"/></g></g></g></svg>