<svg xmlns="http://www.w3.org/2000/svg" width="36.559" height="22.407" viewBox="0 0 36.559 22.407"><g transform="translate(0 0)"><path d="M7.522,4.718a15.5,15.5,0,0,1,21.59,0l.718.7a.736.736,0,0,1,0,1.057l-2.455,2.4a.387.387,0,0,1-.54,0l-.987-.967a10.812,10.812,0,0,0-15.062,0L9.729,8.949a.387.387,0,0,1-.54,0l-2.455-2.4a.736.736,0,0,1,0-1.057Zm26.667,4.97,2.185,2.139a.736.736,0,0,1,0,1.057l-9.85,9.644a.775.775,0,0,1-1.08,0h0l-6.991-6.845a.194.194,0,0,0-.27,0h0l-6.991,6.845a.775.775,0,0,1-1.08,0h0L.261,12.884a.736.736,0,0,1,0-1.057L2.446,9.688a.775.775,0,0,1,1.08,0l6.991,6.845a.194.194,0,0,0,.27,0h0l6.991-6.845a.775.775,0,0,1,1.08,0h0l6.991,6.845a.194.194,0,0,0,.27,0l6.991-6.845A.775.775,0,0,1,34.189,9.688Z" transform="translate(-0.038 -0.34)" fill="#3b99fc"/></g></svg>