<svg xmlns="http://www.w3.org/2000/svg" width="22.825" height="22.825" viewBox="0 0 22.825 22.825"><g transform="translate(-153.477 -395.723)"><path d="M11.413,0A11.413,11.413,0,1,1,0,11.413,11.413,11.413,0,0,1,11.413,0Z" transform="translate(153.477 395.723)" fill="#ff9416"/><g transform="translate(159.021 399.203)"><path d="M215.8,437.943a2.826,2.826,0,0,1-1.385,2.581,6.177,6.177,0,0,1-2.519.763V443h-1.445v-1.629H208.9V443h-1.445v-1.627h-3.4v-.932h.791a1.947,1.947,0,0,0,.4-.039.658.658,0,0,0,.315-.158.825.825,0,0,0,.212-.342,1.844,1.844,0,0,0,.08-.6v-8.4a1.692,1.692,0,0,0-.08-.568.8.8,0,0,0-.216-.338.761.761,0,0,0-.321-.168,1.579,1.579,0,0,0-.391-.047h-.791v-.924h3.4V427H208.9v1.86h.791c.261,0,.513.005.756.016V427h1.445v2.017a5.974,5.974,0,0,1,1.934.613,2.572,2.572,0,0,1,1.385,2.414,2.7,2.7,0,0,1-.174,1.015,2.17,2.17,0,0,1-.494.745,3.037,3.037,0,0,1-.768.534,5.72,5.72,0,0,1-.994.377v.085a5.658,5.658,0,0,1,1.22.423,3.64,3.64,0,0,1,.951.66,2.77,2.77,0,0,1,.622.9A2.9,2.9,0,0,1,215.8,437.943Z" transform="translate(-204.059 -427)" fill="#fff"/></g><g transform="translate(161.339 401.795)"><path d="M231.617,500.385a2.821,2.821,0,0,1-2.217,3.153,2.724,2.724,0,0,1-3.044-3.573l-.9.4-.243-.741,1.766-.672.569-.217.2.631.567,1.751-.724.246-.4-1.274a1.895,1.895,0,1,0,3.6.434,2.025,2.025,0,0,0-.179-.537,2.636,2.636,0,0,0-1.194-1.177l-.155-.868A2.955,2.955,0,0,1,231.617,500.385Z" transform="translate(-225.212 -492.761)" fill="#ff9416"/><path d="M231.373,453.842a2.82,2.82,0,0,1,2.217-3.153,2.724,2.724,0,0,1,3.044,3.573l.9-.4.243.741-1.766.672-.569.217-.2-.631-.567-1.751.724-.246.4,1.274a1.895,1.895,0,1,0-3.6-.434,2.024,2.024,0,0,0,.179.537,2.636,2.636,0,0,0,1.194,1.177l.156.868A2.955,2.955,0,0,1,231.373,453.842Z" transform="translate(-230.677 -450.648)" fill="#ff9416"/></g></g></svg>