<svg xmlns="http://www.w3.org/2000/svg" xmlns:xlink="http://www.w3.org/1999/xlink" width="94.766" height="94.766" viewBox="0 0 94.766 94.766">
  <defs>
    <linearGradient id="linear-gradient" x1="0.067" y1="0.25" x2="0.933" y2="0.75" gradientUnits="objectBoundingBox">
      <stop offset="0" stop-color="#00ddf6"/>
      <stop offset="1" stop-color="#2e3192"/>
    </linearGradient>
    <linearGradient id="linear-gradient-2" x1="0.5" y1="0" x2="0.5" y2="1" xlink:href="#linear-gradient"/>
  </defs>
  <g id="Group_719" data-name="Group 719" transform="translate(-56.97 -112.382)">
    <path id="Path_1" data-name="Path 1" d="M214.351,402.27a47.383,47.383,0,1,0,47.385,47.385A47.383,47.383,0,0,0,214.351,402.27Zm-11.043,62.4-.326.123-6.761,2.568-8.375-11.907Z" transform="translate(-110 -289.888)" fill="url(#linear-gradient)"/>
    <g id="Group_12" data-name="Group 12" transform="translate(77.847 116.27)">
      <g id="Group_10" data-name="Group 10" transform="translate(0 6.643)">
        <g id="Group_7" data-name="Group 7">
          <g id="Group_6" data-name="Group 6">
            <g id="Group_2" data-name="Group 2" transform="translate(0.001)">
              <path id="Path_7" data-name="Path 7" d="M237.7,424.575v25.994l-2.214.968-.113.047-1.4.609-1.87.817-20.91,9.131,11.855-19.777,3.56-5.934,6.529-10.887a10.937,10.937,0,0,1,2.616-.8A11.353,11.353,0,0,1,237.7,424.575Z" transform="translate(-211.193 -424.575)" fill="#8c8c8c"/>
            </g>
            <g id="Group_3" data-name="Group 3" transform="translate(15.476 54.354)">
              <path id="Path_8" data-name="Path 8" d="M255,543.8v20.565c-.316,0-.628-.014-.944-.033h-.019l-4.381-6.227-5.538-7.879a10.954,10.954,0,0,1,.788-6.222l2.327,7.44,4.23-1.435-3.309-10.235-.019-.066Z" transform="translate(-243.972 -539.705)" fill="#8c8c8c"/>
            </g>
            <g id="Group_4" data-name="Group 4" transform="translate(0 42.657)">
              <path id="Path_9" data-name="Path 9" d="M226.652,524.146l-.326.123-6.761,2.568L211.19,514.93Z" transform="translate(-211.19 -514.93)" fill="#8c8c8c"/>
            </g>
            <g id="Group_5" data-name="Group 5" transform="translate(8.375 51.873)">
              <path id="Path_10" data-name="Path 10" d="M243.523,547.235l-4.23,1.435-2.327-7.44a10.955,10.955,0,0,0-.788,6.222l-4.367-6.208-.354-.505-2.526-3.6,6.761-2.568.326-.123,4.178,2.483.019.066Z" transform="translate(-228.93 -534.45)" fill="#8c8c8c"/>
            </g>
            <path id="Path_11" data-name="Path 11" d="M266.256,591.9v1.336l-.963-1.369h.019C265.628,591.884,265.94,591.9,266.256,591.9Z" transform="translate(-239.751 -512.886)" fill="#8c8c8c"/>
          </g>
        </g>
        <g id="Group_9" data-name="Group 9" transform="translate(26.506 42.655)">
          <g id="Group_8" data-name="Group 8">
            <path id="Path_12" data-name="Path 12" d="M278.338,549.864l-5.731,8.153-4.31,6.128c-.321.024-.642.033-.963.033V543.613l7.148-4.258a13.98,13.98,0,0,1,2.762,3.848,12.326,12.326,0,0,1,1.053,3.14A11.038,11.038,0,0,1,278.338,549.864Z" transform="translate(-267.333 -527.822)" fill="#3c3c3b"/>
            <path id="Path_13" data-name="Path 13" d="M267.333,591.9c.321,0,.642-.009.963-.033l-.963,1.369Z" transform="translate(-267.333 -555.541)" fill="#3c3c3b"/>
            <path id="Path_14" data-name="Path 14" d="M301.829,514.925,290.7,530.759l-4.367,6.208a11.041,11.041,0,0,0-.042-3.522,12.323,12.323,0,0,0-1.053-3.139,13.977,13.977,0,0,0-2.762-3.848l4.428-2.639Z" transform="translate(-275.325 -514.925)" fill="#3c3c3b"/>
          </g>
        </g>
      </g>
      <path id="Path_15" data-name="Path 15" d="M293.837,491.207l-26.5,15.749V479.635Z" transform="translate(-240.828 -446.998)" fill="#141414"/>
      <path id="Path_16" data-name="Path 16" d="M271.931,418.177a10.948,10.948,0,0,0-3.654-.982c-.312-.028-.623-.047-.944-.047v-6.643l1.1,1.841Z" transform="translate(-240.828 -410.505)" fill="#343434"/>
      <path id="Path_17" data-name="Path 17" d="M293.837,462.141l-26.5-11.571V424.575c.321,0,.633.019.944.047a10.949,10.949,0,0,1,3.654.982l6.411,10.693,5.165,8.616Z" transform="translate(-240.828 -417.932)" fill="#343434"/>
      <path id="Path_18" data-name="Path 18" d="M237.7,479.635v27.321l-26.5-15.749,20.91-9.131,3.267-1.426Z" transform="translate(-211.192 -446.998)" fill="#393939"/>
      <g id="Group_11" data-name="Group 11" transform="translate(4.815 0)">
        <path id="Path_19" data-name="Path 19" d="M242.116,560.286a15.932,15.932,0,0,1-14.286-20.315c.071-.26.151-.515.241-.769l-.595.264-4.664,2.091-1.421-4.334,3.56-1.355,6.761-2.568.326-.123,3-1.138,1.18,3.621.019.066,3.309,10.235-4.23,1.435-2.327-7.44a10.954,10.954,0,0,0-.788,6.222c0,.038.014.076.019.113a11.067,11.067,0,0,0,5.519,7.766Z" transform="translate(-221.39 -474.663)" fill="url(#linear-gradient-2)"/>
        <path id="Path_20" data-name="Path 20" d="M271.186,554.879a14.894,14.894,0,0,1-1.813.208l4.31-6.128a11.1,11.1,0,0,0,5.689-11.675,12.325,12.325,0,0,0-1.053-3.14,13.979,13.979,0,0,0-2.762-3.848,16.348,16.348,0,0,0-3.848-2.833c-.132-.071-.26-.137-.373-.194-.3-1.685-.6-3.38-.911-5.075a18.17,18.17,0,0,1,6,2.464,17.584,17.584,0,0,1,3.564,3,16.1,16.1,0,0,1,4.159,8.8C285.217,544.46,280.076,553.326,271.186,554.879Z" transform="translate(-246.72 -469.465)" fill="url(#linear-gradient-2)"/>
        <path id="Path_21" data-name="Path 21" d="M262.234,410.505v6.643a11.351,11.351,0,0,0-1.945.165,10.937,10.937,0,0,0-2.615.8l3.465-5.779Z" transform="translate(-240.544 -410.505)" fill="#8c8c8c"/>
        <path id="Path_22" data-name="Path 22" d="M238.5,431.05a10.351,10.351,0,0,0,.137,1.128,11.966,11.966,0,0,0,1.053,3.14,15.383,15.383,0,0,0,6.973,6.874c.241,1.317.472,2.644.713,3.966.066.373.132.741.2,1.114-.581-.128-1.152-.279-1.709-.458a17.516,17.516,0,0,1-10.925-9.829,15.874,15.874,0,0,1-1.076-3.975c-1.076-8.007,4.06-16.873,12.94-18.426a14.861,14.861,0,0,1,1.69-.2l-3.465,5.779A11.08,11.08,0,0,0,238.5,431.05Z" transform="translate(-227.901 -412.553)" fill="url(#linear-gradient-2)"/>
        <path id="Path_23" data-name="Path 23" d="M290.257,437.449l-5.514,2.1-4.8,1.827-3.328,1.265-1.19-3.692L272.1,428.71l4.23-1.435,2.328,7.44a10.976,10.976,0,0,0,.769-6.331,11.031,11.031,0,0,0-6.265-8.148l-3.494-5.831a15.909,15.909,0,0,1,13.9,21.065l5.269-2.356Z" transform="translate(-246.878 -412.564)" fill="url(#linear-gradient-2)"/>
      </g>
    </g>
  </g>
</svg>
