<svg xmlns="http://www.w3.org/2000/svg" xmlns:xlink="http://www.w3.org/1999/xlink" width="44.62" height="44.62" viewBox="0 0 44.62 44.62">
  <defs>
    <linearGradient id="linear-gradient" x1="0.067" y1="0.25" x2="0.933" y2="0.75" gradientUnits="objectBoundingBox">
      <stop offset="0" stop-color="#00ddf6"/>
      <stop offset="1" stop-color="#2e3192"/>
    </linearGradient>
    <linearGradient id="linear-gradient-2" x1="0.5" y1="0" x2="0.5" y2="1" xlink:href="#linear-gradient"/>
  </defs>
  <g id="Group_721" data-name="Group 721" transform="translate(-56.97 -112.382)">
    <path id="Path_1" data-name="Path 1" d="M189.279,402.27a22.31,22.31,0,1,0,22.311,22.311A22.31,22.31,0,0,0,189.279,402.27Zm-5.2,29.382-.153.058-3.183,1.209-3.943-5.606Z" transform="translate(-110 -289.888)" fill="url(#linear-gradient)"/>
    <g id="Group_12" data-name="Group 12" transform="translate(66.8 114.212)">
      <g id="Group_10" data-name="Group 10" transform="translate(0 3.128)">
        <g id="Group_7" data-name="Group 7">
          <g id="Group_6" data-name="Group 6">
            <g id="Group_2" data-name="Group 2" transform="translate(0.001)">
              <path id="Path_7" data-name="Path 7" d="M223.672,424.575v12.239l-1.043.456-.053.022-.658.287-.88.385-9.845,4.3,5.582-9.312,1.676-2.794,3.074-5.126a5.152,5.152,0,0,1,1.231-.378A5.348,5.348,0,0,1,223.672,424.575Z" transform="translate(-211.193 -424.575)" fill="#8c8c8c"/>
            </g>
            <g id="Group_3" data-name="Group 3" transform="translate(7.287 25.592)">
              <path id="Path_8" data-name="Path 8" d="M249.165,541.632v9.683c-.149,0-.3-.007-.445-.016h-.009l-2.063-2.932-2.607-3.71a5.158,5.158,0,0,1,.371-2.93l1.1,3.5,1.992-.676-1.558-4.819-.009-.031Z" transform="translate(-243.972 -539.705)" fill="#8c8c8c"/>
            </g>
            <g id="Group_4" data-name="Group 4" transform="translate(0 20.085)">
              <path id="Path_9" data-name="Path 9" d="M218.47,519.269l-.153.058-3.183,1.209-3.943-5.606Z" transform="translate(-211.19 -514.93)" fill="#8c8c8c"/>
            </g>
            <g id="Group_5" data-name="Group 5" transform="translate(3.943 24.424)">
              <path id="Path_10" data-name="Path 10" d="M235.8,540.47l-1.992.676-1.1-3.5a5.158,5.158,0,0,0-.371,2.93l-2.056-2.923-.167-.238-1.189-1.694,3.183-1.209.153-.058,1.967,1.169.009.031Z" transform="translate(-228.93 -534.45)" fill="#8c8c8c"/>
            </g>
            <path id="Path_11" data-name="Path 11" d="M265.746,591.88v.629l-.454-.645h.009C265.451,591.874,265.6,591.88,265.746,591.88Z" transform="translate(-253.266 -554.678)" fill="#8c8c8c"/>
          </g>
        </g>
        <g id="Group_9" data-name="Group 9" transform="translate(12.48 20.084)">
          <g id="Group_8" data-name="Group 8">
            <path id="Path_12" data-name="Path 12" d="M272.515,544.3l-2.7,3.839-2.03,2.885c-.151.011-.3.016-.453.016V541.36l3.365-2.005a6.583,6.583,0,0,1,1.3,1.812,5.805,5.805,0,0,1,.5,1.478A5.2,5.2,0,0,1,272.515,544.3Z" transform="translate(-267.333 -533.925)" fill="#3c3c3b"/>
            <path id="Path_13" data-name="Path 13" d="M267.333,591.88c.151,0,.3,0,.453-.016l-.453.645Z" transform="translate(-267.333 -574.762)" fill="#3c3c3b"/>
            <path id="Path_14" data-name="Path 14" d="M291.587,514.925l-5.242,7.455-2.056,2.923a5.2,5.2,0,0,0-.02-1.658,5.8,5.8,0,0,0-.5-1.478,6.581,6.581,0,0,0-1.3-1.812l2.085-1.243Z" transform="translate(-279.108 -514.925)" fill="#3c3c3b"/>
          </g>
        </g>
      </g>
      <path id="Path_15" data-name="Path 15" d="M279.813,485.084,267.333,492.5V479.635Z" transform="translate(-254.853 -464.268)" fill="#141414"/>
      <path id="Path_16" data-name="Path 16" d="M269.5,414.117a5.154,5.154,0,0,0-1.721-.462c-.147-.013-.293-.022-.445-.022V410.5l.52.867Z" transform="translate(-254.853 -410.505)" fill="#343434"/>
      <path id="Path_17" data-name="Path 17" d="M279.812,442.263l-12.479-5.448V424.575c.151,0,.3.009.445.022a5.156,5.156,0,0,1,1.721.462l3.019,5.035,2.432,4.057Z" transform="translate(-254.853 -421.447)" fill="#343434"/>
      <path id="Path_18" data-name="Path 18" d="M223.673,479.635V492.5l-12.479-7.416,9.845-4.3,1.538-.671Z" transform="translate(-211.193 -464.268)" fill="#393939"/>
      <g id="Group_11" data-name="Group 11" transform="translate(2.267 0)">
        <path id="Path_19" data-name="Path 19" d="M231.148,545.34a7.5,7.5,0,0,1-6.726-9.565c.033-.122.071-.242.113-.362l-.28.124-2.2.985-.669-2.041,1.676-.638,3.183-1.209.153-.058,1.411-.536.556,1.7.009.031,1.558,4.819-1.992.676-1.1-3.5a5.158,5.158,0,0,0-.371,2.93c0,.018.007.036.009.053a5.211,5.211,0,0,0,2.6,3.657Z" transform="translate(-221.39 -505.024)" fill="url(#linear-gradient-2)"/>
        <path id="Path_20" data-name="Path 20" d="M270.227,537.584a7.017,7.017,0,0,1-.854.1L271.4,534.8a5.227,5.227,0,0,0,2.679-5.5,5.8,5.8,0,0,0-.5-1.478,6.581,6.581,0,0,0-1.3-1.812,7.7,7.7,0,0,0-1.812-1.334c-.062-.033-.122-.064-.176-.091-.142-.794-.282-1.591-.429-2.39a8.554,8.554,0,0,1,2.823,1.16,8.278,8.278,0,0,1,1.678,1.412,7.744,7.744,0,0,1-4.143,12.817Z" transform="translate(-258.707 -497.368)" fill="url(#linear-gradient-2)"/>
        <path id="Path_21" data-name="Path 21" d="M259.82,410.5v3.128a5.345,5.345,0,0,0-.916.078,5.151,5.151,0,0,0-1.231.378l1.632-2.721Z" transform="translate(-249.608 -410.505)" fill="#8c8c8c"/>
        <path id="Path_22" data-name="Path 22" d="M235.973,422.232a4.874,4.874,0,0,0,.064.531,5.634,5.634,0,0,0,.5,1.478,7.243,7.243,0,0,0,3.283,3.236c.113.62.222,1.245.336,1.867l.093.525c-.273-.06-.542-.131-.8-.216a8.248,8.248,0,0,1-5.144-4.628,7.473,7.473,0,0,1-.507-1.872,7.756,7.756,0,0,1,6.093-8.676,6.979,6.979,0,0,1,.8-.093l-1.632,2.721A5.217,5.217,0,0,0,235.973,422.232Z" transform="translate(-230.982 -413.523)" fill="url(#linear-gradient-2)"/>
        <path id="Path_23" data-name="Path 23" d="M279.365,425.255l-2.6.987-2.261.86-1.567.6-.56-1.738-1.563-4.819,1.992-.676,1.1,3.5a5.169,5.169,0,0,0,.362-2.981,5.194,5.194,0,0,0-2.95-3.837l-1.645-2.745a7.491,7.491,0,0,1,6.546,9.919l2.481-1.109Z" transform="translate(-258.94 -413.538)" fill="url(#linear-gradient-2)"/>
      </g>
    </g>
  </g>
</svg>
