<svg xmlns="http://www.w3.org/2000/svg" xmlns:xlink="http://www.w3.org/1999/xlink" width="60.127" height="50.596" viewBox="0 0 60.127 50.596"><defs><radialGradient id="a" cx="0.5" cy="0.5" r="0.717" gradientTransform="translate(0.055) scale(0.891 1)" gradientUnits="objectBoundingBox"><stop offset="0" stop-color="#3995c0"/><stop offset="0.603" stop-color="#215a9b"/><stop offset="1" stop-color="#143886"/></radialGradient><radialGradient id="b" cx="0.5" cy="0.5" r="0.571" gradientTransform="matrix(1.145, 0, 0, 0.99, -0.063, 0.02)" xlink:href="#a"/><radialGradient id="c" cx="0.5" cy="0.5" r="0.571" gradientTransform="matrix(1.145, 0, 0, 0.99, -0.063, 0.02)" gradientUnits="objectBoundingBox"><stop offset="0" stop-color="#ff8900"/><stop offset="1" stop-color="#e75609"/></radialGradient><filter id="d" x="25.323" y="15.215" width="34.804" height="35.381" filterUnits="userSpaceOnUse"><feOffset dy="3" input="SourceAlpha"/><feGaussianBlur stdDeviation="3" result="e"/><feFlood flood-color="#ff9416" flood-opacity="0.8"/><feComposite operator="in" in2="e"/><feComposite in="SourceGraphic"/></filter><linearGradient id="f" x1="0.498" y1="0.5" x2="0.937" y2="0.5" gradientUnits="objectBoundingBox"><stop offset="0.274"/><stop offset="0.35" stop-color="#121212"/><stop offset="0.504" stop-color="#434343"/><stop offset="0.721" stop-color="#919191"/><stop offset="0.993" stop-color="#fbfbfb"/><stop offset="1" stop-color="#fff"/></linearGradient><linearGradient id="g" x1="0.497" y1="0.616" x2="0.492" y2="1.065" xlink:href="#f"/><linearGradient id="h" x1="0.5" y1="0.523" x2="0.622" y2="1.206" xlink:href="#f"/><linearGradient id="i" x1="0.535" y1="1.234" x2="0.502" y2="0.322" xlink:href="#f"/><linearGradient id="j" x1="0.507" y1="0.501" x2="0.528" y2="-0.166" xlink:href="#f"/><radialGradient id="k" cx="0.5" cy="0.5" r="0.571" gradientTransform="matrix(-1.145, 0, 0, 0.99, -531.257, -0.088)" xlink:href="#a"/><radialGradient id="l" cx="0.5" cy="0.5" r="0.571" gradientTransform="matrix(-1.145, 0, 0, 0.99, -531.257, -0.088)" xlink:href="#c"/><filter id="m" x="0" y="0" width="34.804" height="35.38" filterUnits="userSpaceOnUse"><feOffset dy="3" input="SourceAlpha"/><feGaussianBlur stdDeviation="3" result="n"/><feFlood flood-color="#ff9416" flood-opacity="0.8"/><feComposite operator="in" in2="n"/><feComposite in="SourceGraphic"/></filter><linearGradient id="o" x1="-1305.707" y1="0.5" x2="-1305.268" y2="0.5" xlink:href="#f"/><linearGradient id="p" x1="-380.847" y1="0.616" x2="-380.852" y2="1.065" xlink:href="#f"/><linearGradient id="q" x1="-696.662" y1="0.523" x2="-696.54" y2="1.206" xlink:href="#f"/><linearGradient id="r" x1="-977.765" y1="1.234" x2="-977.798" y2="0.322" xlink:href="#f"/><linearGradient id="s" x1="-478.981" y1="0.501" x2="-478.96" y2="-0.166" xlink:href="#f"/><radialGradient id="t" cx="0.5" cy="0.5" r="0.717" gradientTransform="translate(0.055) scale(0.891 1)" xlink:href="#c"/><filter id="u" x="8.251" y="3.063" width="44.08" height="43.341" filterUnits="userSpaceOnUse"><feOffset dy="3" input="SourceAlpha"/><feGaussianBlur stdDeviation="3" result="v"/><feFlood flood-color="#ff9416" flood-opacity="0.8"/><feComposite operator="in" in2="v"/><feComposite in="SourceGraphic"/></filter><clipPath id="w"><path d="M92.465,149.813c0,4.876-4.436,8.828-9.908,8.828s-9.909-3.952-9.909-8.828,4.436-8.828,9.909-8.828S92.465,144.937,92.465,149.813Z" transform="translate(-72.648 -140.985)" fill="url(#a)"/></clipPath><linearGradient id="x" x1="0.547" y1="0.558" x2="0.777" y2="0.769" xlink:href="#f"/><linearGradient id="y" x1="0.5" y1="0.898" x2="0.5" y2="-0.138" xlink:href="#f"/><linearGradient id="aa" x1="0.379" y1="0.36" x2="0.285" y2="0.251" xlink:href="#f"/></defs><g transform="translate(64.122 -132.716) rotate(31)"><g transform="translate(59.609 143.765)"><path d="M149.029,156.372s6.651-6.041,9.881-3.618c3.451,2.588.815,2.772.026,3.693s1.132,1.051,1.361,2.689-1.089,1.57-.976,2.594,1.413,1.266-.148,3.242c-1.392,1.761-8.792-1.433-10.144-3.993Z" transform="translate(-149.029 -152.18)" fill="url(#b)"/><g transform="translate(0 0)"><g transform="matrix(0.86, -0.52, 0.52, 0.86, -46.22, 3.02)" filter="url(#d)"><path d="M149.029,156.372s6.651-6.041,9.881-3.618c3.451,2.588.815,2.772.026,3.693s1.132,1.051,1.361,2.689-1.089,1.57-.976,2.594,1.413,1.266-.148,3.242c-1.392,1.761-8.792-1.433-10.144-3.993Z" transform="translate(-8.19 -185.98) rotate(31)" fill="url(#c)"/></g></g><path d="M184.864,153.026a2.787,2.787,0,0,0-1.05-.484c3.308,2.723.715,2.929-.068,3.915s1.132,1.135,1.361,2.905-1.089,1.7-.976,2.8,1.413,1.368-.148,3.5a.916.916,0,0,1-.059.072,1.61,1.61,0,0,0,1.2-.5c1.561-1.976.26-2.218.148-3.242s1.2-.956.976-2.595-2.15-1.767-1.361-2.688S188.315,155.613,184.864,153.026Z" transform="translate(-174.983 -152.452)" fill="#ccc" style="mix-blend-mode:multiply;isolation:isolate"/><path d="M186.1,153.39c-.276-.209-.275-.139-.062.07,2.66,2.612.484,2.728-.124,3.658s.873,1.06,1.049,2.714-.84,1.585-.753,2.618,1.09,1.278-.114,3.272c-.087.145-.206.339-.152.344a1.125,1.125,0,0,0,.418-.344c1.561-1.994.261-2.239.148-3.272s1.2-.965.975-2.618-2.15-1.784-1.36-2.714S189.553,156,186.1,153.39Z" transform="translate(-176.647 -152.995)" opacity="0.6" fill="url(#f)" style="mix-blend-mode:screen;isolation:isolate"/><path d="M153.171,154.182a24.054,24.054,0,0,1,4.45-1.951c-3.438-.533-8.592,4.147-8.592,4.147v1.538A8.756,8.756,0,0,1,153.171,154.182Z" transform="translate(-149.029 -152.186)" fill="#ccc" style="mix-blend-mode:multiply;isolation:isolate"/><path d="M162.661,195.784a8.992,8.992,0,0,1-5.018-1.759c2.037,1.681,5.813,3.158,6.718,2.091a4.315,4.315,0,0,0,.376-.506A8.883,8.883,0,0,1,162.661,195.784Z" transform="translate(-155.504 -183.634)" opacity="0.6" fill="url(#g)" style="mix-blend-mode:screen;isolation:isolate"/><path d="M149.169,176.583c-.084.143-.465,1.067,5.3,1.522.878.07,4.539.192,4.513-1.318-.025-1.481-1.677-1.2-2.705-1.07a11.841,11.841,0,0,1-3.82.615C149.237,175.979,149.239,176.464,149.169,176.583Z" transform="translate(-149.106 -169.791)" fill="#adc8cf" style="mix-blend-mode:multiply;isolation:isolate"/><path d="M170.641,180.65c.15.014.306.027.469.04.663.052,3.426.145,3.406-.995a1.068,1.068,0,0,0-.064-.36A6.978,6.978,0,0,1,170.641,180.65Z" transform="translate(-165.274 -172.592)" opacity="0.6" fill="url(#h)" style="mix-blend-mode:screen;isolation:isolate"/><path d="M158.373,186.151a26.668,26.668,0,0,1-5.318-.91c-.594-.164-1.939-.852-2.537-1.015-.263.857.523,1.193,1.382,1.732,1.418.889,5.645,2.932,7.016,1.854A1.02,1.02,0,0,0,158.373,186.151Z" transform="translate(-150.11 -176.268)" fill="#adc8cf" style="mix-blend-mode:multiply;isolation:isolate"/><path d="M173,195.844a5.591,5.591,0,0,1-.6-.033c1.037.36,2.071.54,2.577.142a.619.619,0,0,0,.181-.542A5.586,5.586,0,0,1,173,195.844Z" transform="translate(-166.591 -184.675)" opacity="0.6" fill="url(#i)" style="mix-blend-mode:screen;isolation:isolate"/><path d="M149.9,162.353a6.076,6.076,0,0,0,4.455-.685,49.621,49.621,0,0,1,4.872-1.9c.668-.213.6-.742.014-1.035a6.146,6.146,0,0,0-4.632-.181C152.126,159.907,150.406,161.341,149.9,162.353Z" transform="translate(-149.682 -156.69)" fill="#adc8cf" style="mix-blend-mode:multiply;isolation:isolate"/><path d="M165.412,160.379a6.248,6.248,0,0,1,2.06.351c.1-.171-.011-.383-.289-.522a5.116,5.116,0,0,0-3.555.038,10.8,10.8,0,0,0-1.761,1.165,6.408,6.408,0,0,1,1.755-.769A6.25,6.25,0,0,1,165.412,160.379Z" transform="translate(-158.679 -157.989)" opacity="0.6" fill="url(#j)" style="mix-blend-mode:screen;isolation:isolate"/></g><g transform="translate(30.066 143.765)"><path d="M41.68,156.372s-6.65-6.041-9.881-3.618c-3.451,2.588-.815,2.772-.026,3.693s-1.132,1.051-1.361,2.689,1.089,1.57.976,2.594-1.414,1.266.148,3.242c1.392,1.761,8.792-1.433,10.144-3.993Z" transform="translate(-30.066 -152.18)" fill="url(#k)"/><g transform="translate(0 0)"><g transform="matrix(0.86, -0.52, 0.52, 0.86, -16.68, 3.02)" filter="url(#m)"><path d="M41.68,156.372s-6.65-6.041-9.881-3.618c-3.451,2.588-.815,2.772-.026,3.693s-1.132,1.051-1.361,2.689,1.089,1.57.976,2.594-1.414,1.266.148,3.242c1.392,1.761,8.792-1.433,10.144-3.993Z" transform="translate(68.46 -139.93) rotate(31)" fill="url(#l)"/></g></g><path d="M31.8,153.026a2.788,2.788,0,0,1,1.051-.484c-3.308,2.723-.715,2.929.068,3.915s-1.132,1.135-1.361,2.905,1.089,1.7.976,2.8-1.413,1.368.148,3.5c.018.025.039.049.059.072a1.611,1.611,0,0,1-1.2-.5c-1.561-1.976-.26-2.218-.148-3.242s-1.205-.956-.976-2.595,2.15-1.767,1.361-2.688S28.348,155.613,31.8,153.026Z" transform="translate(-30.066 -152.452)" fill="#ccc" style="mix-blend-mode:multiply;isolation:isolate"/><path d="M33.513,153.39c.276-.209.274-.139.062.07-2.661,2.612-.484,2.728.124,3.658s-.873,1.06-1.049,2.714.839,1.585.752,2.618-1.09,1.278.114,3.272c.087.145.205.339.152.344a1.127,1.127,0,0,1-.418-.344c-1.561-1.994-.261-2.239-.148-3.272s-1.2-.965-.976-2.618,2.15-1.784,1.361-2.714S30.062,156,33.513,153.39Z" transform="translate(-31.354 -152.995)" opacity="0.6" fill="url(#o)" style="mix-blend-mode:screen;isolation:isolate"/><path d="M46.687,154.182a24.054,24.054,0,0,0-4.45-1.951c3.438-.533,8.591,4.147,8.591,4.147v1.538A8.752,8.752,0,0,0,46.687,154.182Z" transform="translate(-39.215 -152.186)" fill="#ccc" style="mix-blend-mode:multiply;isolation:isolate"/><path d="M41.73,195.784a8.993,8.993,0,0,0,5.018-1.759c-2.037,1.681-5.813,3.158-6.719,2.091a4.337,4.337,0,0,1-.376-.506A8.886,8.886,0,0,0,41.73,195.784Z" transform="translate(-37.272 -183.634)" opacity="0.6" fill="url(#p)" style="mix-blend-mode:screen;isolation:isolate"/><path d="M46.889,176.583c.084.143.465,1.067-5.3,1.522-.879.07-4.539.192-4.514-1.318.025-1.481,1.677-1.2,2.705-1.07a11.838,11.838,0,0,0,3.82.615C46.821,175.979,46.819,176.464,46.889,176.583Z" transform="translate(-35.337 -169.791)" fill="#adc8cf" style="mix-blend-mode:multiply;isolation:isolate"/><path d="M43.491,180.65c-.15.014-.306.027-.469.04-.663.052-3.425.145-3.407-.995a1.074,1.074,0,0,1,.064-.36A6.98,6.98,0,0,0,43.491,180.65Z" transform="translate(-37.244 -172.592)" opacity="0.6" fill="url(#q)" style="mix-blend-mode:screen;isolation:isolate"/><path d="M41.148,186.151a26.676,26.676,0,0,0,5.318-.91c.594-.164,1.938-.852,2.536-1.015.263.857-.523,1.193-1.382,1.732-1.418.889-5.644,2.932-7.016,1.854A1.02,1.02,0,0,1,41.148,186.151Z" transform="translate(-37.796 -176.268)" fill="#adc8cf" style="mix-blend-mode:multiply;isolation:isolate"/><path d="M44.505,195.844a5.594,5.594,0,0,0,.6-.033c-1.037.36-2.071.54-2.577.142a.619.619,0,0,1-.181-.542A5.59,5.59,0,0,0,44.505,195.844Z" transform="translate(-39.297 -184.675)" opacity="0.6" fill="url(#r)" style="mix-blend-mode:screen;isolation:isolate"/><path d="M46.286,162.353a6.074,6.074,0,0,1-4.455-.685,49.647,49.647,0,0,0-4.872-1.9c-.668-.213-.6-.742-.014-1.035a6.146,6.146,0,0,1,4.632-.181C44.059,159.907,45.779,161.341,46.286,162.353Z" transform="translate(-34.888 -156.69)" fill="#adc8cf" style="mix-blend-mode:multiply;isolation:isolate"/><path d="M43.377,160.379a6.253,6.253,0,0,0-2.061.351c-.1-.171.011-.383.29-.522a5.115,5.115,0,0,1,3.555.038,10.764,10.764,0,0,1,1.761,1.165,6.4,6.4,0,0,0-1.754-.769A6.254,6.254,0,0,0,43.377,160.379Z" transform="translate(-38.495 -157.989)" opacity="0.6" fill="url(#s)" style="mix-blend-mode:screen;isolation:isolate"/></g><g transform="translate(40.641 140.985)"><g transform="matrix(0.86, -0.52, 0.52, 0.86, -27.25, 5.8)" filter="url(#u)"><path d="M92.465,149.813c0,4.876-4.436,8.828-9.908,8.828s-9.909-3.952-9.909-8.828,4.436-8.828,9.909-8.828S92.465,144.937,92.465,149.813Z" transform="translate(36.69 -149.2) rotate(31)" fill="url(#t)"/></g><g clip-path="url(#w)"><g transform="translate(1.826 0.732)"><path d="M8.034,16.069A8.034,8.034,0,0,1,2.353,2.353,8.034,8.034,0,0,1,13.715,13.715,7.982,7.982,0,0,1,8.034,16.069ZM8.034,1a7.03,7.03,0,1,0,7.03,7.03A7.038,7.038,0,0,0,8.034,1Z" transform="translate(0 0)" fill="#fff"/><path d="M157.092,116.519a2.006,2.006,0,0,0-.573-3.368V112.5a.5.5,0,1,0-1,0v.5h-1v-.5a.5.5,0,1,0-1,0v.5h-1a.5.5,0,1,0,0,1h.5v5.021h-.5a.5.5,0,1,0,0,1h1v.5a.5.5,0,0,0,1,0v-.5h1v.5a.5.5,0,0,0,1,0v-.649a2.006,2.006,0,0,0,.573-3.368Zm-3.084-2.511h1.758a1,1,0,1,1,0,2.009h-1.758Zm1.758,5.021h-1.758v-2.009h1.758a1,1,0,1,1,0,2.009Z" transform="translate(-147.23 -108.485)" fill="#fff"/></g></g></g><path d="M101,159.32c0,.06,0,.12,0,.181a11.467,11.467,0,0,1-11.361,11.361,11.094,11.094,0,0,1-3.993-.746,10.569,10.569,0,0,0,6.68,2.308c5.472,0,9.908-3.952,9.908-8.828A8.049,8.049,0,0,0,101,159.32Z" transform="translate(-41.782 -13.782)" fill="#dedede" style="mix-blend-mode:multiply;isolation:isolate"/><path d="M127.2,175.43a10.394,10.394,0,0,1-6.5,7.926c3.744-.239,6.7-3.02,6.7-6.417A5.761,5.761,0,0,0,127.2,175.43Z" transform="translate(-68.13 -25.891)" opacity="0.6" fill="url(#x)" style="mix-blend-mode:screen;isolation:isolate"/><g transform="translate(45.129 142.319)" opacity="0.6" style="mix-blend-mode:screen;isolation:isolate"><path d="M101.977,150.939c0,2.531-2.5-1.514-5.61-1.514s-5.646,4.045-5.646,1.514,2.52-4.584,5.628-4.584S101.977,148.408,101.977,150.939Z" transform="translate(-90.721 -146.355)" opacity="0.6" fill="url(#y)" style="mix-blend-mode:screen;isolation:isolate"/><path d="M106.837,149.6c0,.916-1.436-.548-3.22-.548s-3.24,1.463-3.24.548,1.446-1.659,3.23-1.659S106.837,148.684,106.837,149.6Z" transform="translate(-97.98 -147.547)" opacity="0.6" fill="url(#y)" style="mix-blend-mode:screen;isolation:isolate"/></g><path d="M73.148,152.437a11.352,11.352,0,0,1,11.247-11.247c.108,0,.214.005.321.008a11.117,11.117,0,0,0-2.159-.213c-5.473,0-9.909,3.952-9.909,8.828a7.952,7.952,0,0,0,.5,2.779C73.152,152.54,73.148,152.489,73.148,152.437Z" transform="translate(-32.007)" fill="#dedede" style="mix-blend-mode:multiply;isolation:isolate"/><path d="M83.578,143.234c-4.7.087-8.487,3.509-8.487,7.72,0,.01,0,.02,0,.029A9.983,9.983,0,0,1,83.578,143.234Z" transform="translate(-33.844 -1.69)" opacity="0.6" fill="url(#aa)" style="mix-blend-mode:screen;isolation:isolate"/></g></svg>