<svg xmlns="http://www.w3.org/2000/svg" width="720.33" height="192.521" viewBox="0 0 720.33 192.521"><g transform="translate(-163.668 -83)"><g transform="translate(163.669 83)"><g transform="translate(0 0)"><path d="M420.917,1135.482a66.359,66.359,0,0,0-66.338-66.34H294.732a66.346,66.346,0,0,0-66.338,66.34v59.843a66.711,66.711,0,0,0,62.267,66.338H354.58a66.348,66.348,0,0,0,66.338-66.34Z" transform="translate(-228.394 -1069.143)" fill="#fff"/><g transform="translate(6.496 6.496)"><path d="M292.5,1103.39l29.923-29.921H292.5Z" transform="translate(-202.734 -1073.468)" fill="#248332"/><path d="M322.424,1073.47,292.5,1103.391h29.923Z" transform="translate(-202.734 -1073.468)" fill="#145629"/><path d="M272.576,1073.468,302.5,1103.39l0-29.922Z" transform="translate(-212.728 -1073.468)" fill="#28bef3"/><path d="M252.647,1173.1l29.926,29.922,0-29.922Z" transform="translate(-222.724 -1023.493)" fill="#945b38"/><path d="M272.574,1203.022,302.5,1173.1H272.577Z" transform="translate(-212.729 -1023.493)" fill="#4d201a"/><path d="M302.5,1173.1l-29.919,29.922H302.5Z" transform="translate(-212.728 -1023.493)" fill="#9a6435"/><path d="M312.428,1203.021l29.919-29.919H312.428Z" transform="translate(-192.738 -1023.492)" fill="#e8272d"/><path d="M252.647,1103.39l29.923-29.922v29.922Z" transform="translate(-222.724 -1073.468)" fill="#76187e"/><path d="M252.647,1143.245l23.424-23.314h0l-6.551-6.608H252.647Z" transform="translate(-222.724 -1053.478)" fill="#880f50"/><path d="M272.574,1073.468l29.919,29.922H272.574Z" transform="translate(-212.729 -1073.468)" fill="#0063b0"/><path d="M262.643,1133.248l-29.923,29.922v-29.922Z" transform="translate(-232.72 -1043.484)" fill="#df8200"/><path d="M262.641,1127.819l-6.615-5.969-23.3,23.388h29.919Z" transform="translate(-232.719 -1085.393)" fill="#e8272d"/><path d="M232.722,1113.322l29.919,29.923v-29.923Z" transform="translate(-232.719 -1053.478)" fill="#cc004a"/><path d="M282.517,1148.506l-6.505-6.485-23.365,23.331H282.57l-.052-16.846Z" transform="translate(-222.724 -1075.586)" fill="#540042"/><path d="M342.351,1143.243l-29.922-29.921v29.919Z" transform="translate(-192.738 -1053.478)" fill="#0063b0"/><path d="M312.428,1113.322l29.922,29.921v-29.921Z" transform="translate(-192.738 -1053.478)" fill="#009b8b"/><path d="M362.276,1113.323l-29.923,29.92,0-29.921Z" transform="translate(-182.743 -1053.478)" fill="#8abb2a"/><path d="M332.355,1143.243l29.919-29.921v29.923Z" transform="translate(-182.743 -1053.478)" fill="#145629"/><path d="M252.647,1133.248l29.923,29.922v-29.922Z" transform="translate(-222.724 -1043.484)" fill="#ef5713"/><path d="M282.57,1163.17l-29.923-29.921v29.921Z" transform="translate(-222.724 -1043.483)" fill="#ffbe00"/><path d="M262.643,1183.094l-29.923-29.92h29.923Z" transform="translate(-232.72 -1033.488)" fill="#ffbe00"/><path d="M232.72,1113.322l29.923,29.919H232.72Z" transform="translate(-232.72 -1053.478)" fill="#a32e0d"/><path d="M342.35,1183.095l-29.919-29.923H342.35Z" transform="translate(-192.737 -1033.488)" fill="#2b002e"/><path d="M332.355,1133.248l29.919,29.922v-29.922Z" transform="translate(-182.743 -1043.484)" fill="#009b8b"/><path d="M362.276,1163.17l-29.923-29.921,0,29.921Z" transform="translate(-182.743 -1043.483)" fill="#0063b0"/><path d="M232.72,1163.17l29.923-29.921v29.921Z" transform="translate(-232.72 -1043.483)" fill="#ef5713"/><path d="M252.647,1183.094l29.923-29.92H252.647Z" transform="translate(-222.724 -1033.488)" fill="#df8200"/><path d="M282.57,1153.175l-29.923,29.92H282.57Z" transform="translate(-222.724 -1033.488)" fill="#9a6435"/><path d="M342.351,1183.094l-29.922-29.92v29.92Z" transform="translate(-192.738 -1033.488)" fill="#540042"/><path d="M362.275,1153.175l-29.919,29.92v-29.92Z" transform="translate(-182.743 -1033.488)" fill="#0d94d5"/><path d="M342.354,1103.391l-29.926-29.921v29.921Z" transform="translate(-192.738 -1073.468)" fill="#8abb2a"/><path d="M312.428,1223.7h0Z" transform="translate(-192.738 -1163.857)" fill="#003c16"/><path d="M362.276,1123.318,332.353,1093.4l0,29.921Z" transform="translate(-182.743 -1063.473)" fill="#248332"/><path d="M332.355,1093.4Z" transform="translate(-182.742 -1063.473)" fill="#248332"/><path d="M312.428,1073.47h0v29.921h0V1073.47l29.922,29.921v0Z" transform="translate(-192.738 -1073.468)" fill="#248332"/><path d="M332.355,1093.4h0l29.919,29.922h0a59.478,59.478,0,0,0-8.022-29.922Z" transform="translate(-182.743 -1063.473)" fill="#8abb2a"/><path d="M332.355,1078.814v21.895h21.9A60.18,60.18,0,0,0,332.355,1078.814Z" transform="translate(-182.743 -1070.787)" fill="#ffe700"/><path d="M342.351,1081.5a59.531,59.531,0,0,0-29.922-8.026l29.922,29.921Z" transform="translate(-192.738 -1073.469)" fill="#dad800"/><path d="M256.044,1099.994h0l-23.324,23.324h0a59.554,59.554,0,0,1,8.022-29.922h8.677Z" transform="translate(-232.72 -1063.473)" fill="#e22485"/><path d="M259.966,1078.814l0,21.895h-21.9A60.163,60.163,0,0,1,259.966,1078.814Z" transform="translate(-230.041 -1070.787)" fill="#cc004a"/><path d="M252.65,1081.5a59.5,59.5,0,0,1,29.916-8.026l-29.919,29.921Z" transform="translate(-222.724 -1073.469)" fill="#e50019"/><path d="M262.642,1183.1v0l-29.922-29.92h0a59.549,59.549,0,0,0,8.022,29.922Z" transform="translate(-232.72 -1033.488)" fill="#4d201a"/><path d="M259.963,1195v-21.9h-21.9A60.206,60.206,0,0,0,259.963,1195Z" transform="translate(-230.041 -1023.492)" fill="#784628"/><path d="M252.647,1195a59.548,59.548,0,0,0,29.919,8.025l-29.919-29.92Z" transform="translate(-222.724 -1023.492)" fill="#9a6435"/><path d="M332.355,1183.1v0l29.919-29.92h0a59.472,59.472,0,0,1-8.022,29.922Z" transform="translate(-182.743 -1033.488)" fill="#28bef3"/><path d="M332.355,1195v-21.9h21.9A60.178,60.178,0,0,1,332.355,1195Z" transform="translate(-182.743 -1023.492)" fill="#76187e"/><path d="M342.351,1195a59.547,59.547,0,0,1-29.922,8.025l29.922-29.92Z" transform="translate(-192.738 -1023.492)" fill="#e20064"/><path d="M312.428,1123.316h0l29.926-29.922h-.006Z" transform="translate(-192.738 -1063.473)" fill="#248332"/><path d="M292.5,1103.39l29.923-29.921H292.5Z" transform="translate(-202.733 -1073.468)" fill="#248332"/><path d="M272.574,1203.022,302.5,1173.1H272.577Z" transform="translate(-212.729 -1053.346)" fill="#e81010"/><path d="M302.5,1173.1l-29.919,29.922H302.5Z" transform="translate(-212.728 -1053.346)" fill="#ff5310"/><path d="M252.647,1133.248l29.923,29.922v-17.45l-12.376-12.472Z" transform="translate(-192.872 -1043.484)" fill="#ff2e12"/><path d="M282.57,1163.17l-29.923-29.921v29.921Z" transform="translate(-192.872 -1043.483)" fill="#ffbe00"/><path d="M270.409,1206.242l-17.762-17.082v17.082Z" transform="translate(-192.872 -1116.407)" fill="#ff960b"/><path d="M269.549,1205.44l-17.019-17.573.027,17.379Z" transform="translate(-222.634 -1145.493)" fill="#ffbe00"/><path d="M252.647,1133.248l29.923,29.922v-29.922Z" transform="translate(-192.872 -1103.418)" fill="#1194ed"/></g></g></g><g transform="translate(403.999 104.755)"><text transform="translate(210.816 89.818)" fill="#242166" font-size="93" font-family="Montserrat-Bold, Montserrat" font-weight="700" letter-spacing="-0.01em"><tspan x="-210.04" y="0">YFSWAP</tspan></text><text transform="translate(240 138.672)" fill="#c91f66" font-size="37" font-family="Montserrat-Regular, Montserrat" letter-spacing="0.2em"><tspan x="-239.797" y="0">DeFi Yield Farming</tspan></text></g></g></svg>